<svg xmlns="http://www.w3.org/2000/svg" width="212.224" height="70.94" viewBox="0 0 212.224 70.94">
    <defs>
        <style>
            .prefix__cls-2{fill:#fff}
        </style>
    </defs>
    <g id="prefix__Group_8422" data-name="Group 8422" transform="translate(-611.044 394.236)">
        <g id="prefix__Group_8136" data-name="Group 8136" transform="translate(611.044 -394.236)">
            <g id="prefix__Group_8131" data-name="Group 8131">
                <g id="prefix__Group_8130" data-name="Group 8130">
                    <path id="prefix__Path_37390" fill="#b6b6b6" d="M806.368-394.236H626.012c-.543 0-1.082.014-1.63.023a23.578 23.578 0 0 0-3.554.314 11.811 11.811 0 0 0-3.371 1.112 11.431 11.431 0 0 0-2.871 2.089 11.12 11.12 0 0 0-2.089 2.877 11.716 11.716 0 0 0-1.108 3.375 23.13 23.13 0 0 0-.317 3.551c-.016.543-.018 1.089-.027 1.633v40.993c.009.55.011 1.084.027 1.635a23.13 23.13 0 0 0 .317 3.551 11.691 11.691 0 0 0 1.111 3.383 10.988 10.988 0 0 0 2.089 2.862 11.137 11.137 0 0 0 2.871 2.091 11.883 11.883 0 0 0 3.371 1.119 24.047 24.047 0 0 0 3.554.314c.548.011 1.087.018 1.63.018H808.29c.539 0 1.094-.007 1.635-.018a23.761 23.761 0 0 0 3.547-.314 12.072 12.072 0 0 0 3.384-1.119 11.151 11.151 0 0 0 2.868-2.091 11.351 11.351 0 0 0 2.1-2.862 11.782 11.782 0 0 0 1.1-3.377 23.869 23.869 0 0 0 .328-3.551c.007-.552.007-1.085.007-1.635.014-.644.014-1.286.014-1.94v-37.118c0-.649 0-1.293-.014-1.935 0-.544 0-1.091-.007-1.633a23.869 23.869 0 0 0-.328-3.551 11.807 11.807 0 0 0-1.1-3.375 11.489 11.489 0 0 0-2.1-2.877 11.446 11.446 0 0 0-2.868-2.089 12 12 0 0 0-3.384-1.112 23.3 23.3 0 0 0-3.547-.314c-.541-.009-1.1-.02-1.635-.023h-1.922z" data-name="Path 37390" transform="translate(-611.044 394.236)"/>
                    <path id="prefix__Path_37391" d="M625.346-325.525c-.541 0-1.068-.007-1.605-.018a22.622 22.622 0 0 1-3.315-.289 10.5 10.5 0 0 1-2.937-.972 9.578 9.578 0 0 1-2.478-1.8 9.443 9.443 0 0 1-1.811-2.476 10.2 10.2 0 0 1-.963-2.94 21.961 21.961 0 0 1-.294-3.325c-.012-.374-.027-1.619-.027-1.619v-40.968s.016-1.227.027-1.587a21.926 21.926 0 0 1 .293-3.32 10.174 10.174 0 0 1 .965-2.948 9.5 9.5 0 0 1 1.8-2.479 9.825 9.825 0 0 1 2.486-1.812 10.318 10.318 0 0 1 2.932-.965 22.2 22.2 0 0 1 3.327-.291l1.6-.023h182.261l1.619.023a21.942 21.942 0 0 1 3.3.289 10.442 10.442 0 0 1 2.963.972 9.759 9.759 0 0 1 2.469 1.8 9.847 9.847 0 0 1 1.814 2.49 10.194 10.194 0 0 1 .949 2.924 22.724 22.724 0 0 1 .308 3.348c.005.5.005 1.041.005 1.578.014.665.014 1.3.014 1.935v37.118c0 .644 0 1.273-.014 1.906 0 .578 0 1.1-.007 1.649a22.3 22.3 0 0 1-.3 3.288 10.148 10.148 0 0 1-.958 2.962 9.7 9.7 0 0 1-1.8 2.456 9.6 9.6 0 0 1-2.483 1.814 10.452 10.452 0 0 1-2.958.975 22.338 22.338 0 0 1-3.315.289c-.52.011-1.064.018-1.591.018H805.7z" data-name="Path 37391" transform="translate(-610.369 394.913)"/>
                </g>
            </g>
            <g id="prefix__Group_8135" data-name="Group 8135" transform="translate(17.684 15.467)">
                <g id="prefix__Group_8133" data-name="Group 8133">
                    <g id="prefix__Group_8132" data-name="Group 8132">
                        <path id="prefix__Path_37392" d="M647.259-369.04a8.779 8.779 0 0 1 4.178-7.364 8.981 8.981 0 0 0-7.078-3.827c-2.978-.312-5.865 1.782-7.383 1.782-1.547 0-3.882-1.75-6.4-1.7a9.424 9.424 0 0 0-7.933 4.838c-3.43 5.938-.873 14.665 2.414 19.466 1.644 2.35 3.565 4.976 6.08 4.882 2.46-.1 3.379-1.568 6.347-1.568 2.942 0 3.8 1.568 6.369 1.509 2.639-.043 4.3-2.361 5.89-4.733a19.429 19.429 0 0 0 2.692-5.485 8.477 8.477 0 0 1-5.176-7.8z" class="prefix__cls-2" data-name="Path 37392" transform="translate(-621.016 389.578)"/>
                        <path id="prefix__Path_37393" d="M635.6-379.326a8.643 8.643 0 0 0 1.977-6.189 8.793 8.793 0 0 0-5.689 2.942 8.229 8.229 0 0 0-2.029 5.962 7.267 7.267 0 0 0 5.741-2.715z" class="prefix__cls-2" data-name="Path 37393" transform="translate(-614.206 385.515)"/>
                    </g>
                </g>
                <g id="prefix__Group_8134" data-name="Group 8134" transform="translate(43.372 16.228)">
                    <path id="prefix__Path_37394" d="M659.437-360.087h-8.394l-2.016 5.952h-3.556l7.952-22.023h3.694l7.951 22.023h-3.616zm-7.525-2.747h6.654l-3.281-9.66h-.085z" class="prefix__cls-2" data-name="Path 37394" transform="translate(-645.471 376.525)"/>
                    <path id="prefix__Path_37395" d="M672.8-364.691c0 4.991-2.671 8.2-6.7 8.2a5.441 5.441 0 0 1-5.051-2.809h-.076v7.954h-3.3v-21.374h3.19v2.671h.06a5.7 5.7 0 0 1 5.113-2.839c4.078 0 6.764 3.221 6.764 8.197zm-3.389 0c0-3.251-1.68-5.388-4.242-5.388-2.518 0-4.212 2.181-4.212 5.388 0 3.235 1.694 5.4 4.212 5.4 2.563.002 4.243-2.119 4.243-5.4z" class="prefix__cls-2" data-name="Path 37395" transform="translate(-636.031 379.054)"/>
                    <path id="prefix__Path_37396" d="M682.764-364.691c0 4.991-2.669 8.2-6.7 8.2a5.445 5.445 0 0 1-5.053-2.809h-.074v7.954h-3.3v-21.374h3.191v2.671h.06a5.7 5.7 0 0 1 5.112-2.839c4.079 0 6.764 3.221 6.764 8.197zm-3.387 0c0-3.251-1.68-5.388-4.242-5.388-2.518 0-4.212 2.181-4.212 5.388 0 3.235 1.694 5.4 4.212 5.4 2.565.002 4.242-2.119 4.242-5.4z" class="prefix__cls-2" data-name="Path 37396" transform="translate(-628.323 379.054)"/>
                    <path id="prefix__Path_37397" d="M684.225-360.111c.245 2.185 2.366 3.62 5.265 3.62 2.779 0 4.776-1.435 4.776-3.4 0-1.71-1.2-2.733-4.06-3.435l-2.854-.688c-4.044-.975-5.922-2.868-5.922-5.936 0-3.8 3.311-6.411 8.014-6.411 4.654 0 7.844 2.611 7.951 6.411h-3.325c-.2-2.2-2.016-3.526-4.671-3.526s-4.471 1.343-4.471 3.3c0 1.557 1.16 2.472 4 3.175l2.426.6c4.519 1.068 6.4 2.884 6.4 6.1 0 4.12-3.281 6.7-8.5 6.7-4.883 0-8.181-2.518-8.394-6.5z" class="prefix__cls-2" data-name="Path 37397" transform="translate(-618.104 376.365)"/>
                    <path id="prefix__Path_37398" d="M696.852-374.936v3.8h3.054v2.609h-3.054v8.853c0 1.374.612 2.015 1.954 2.015a10.119 10.119 0 0 0 1.084-.076v2.595a9.014 9.014 0 0 1-1.83.153c-3.251 0-4.519-1.22-4.519-4.334v-9.2h-2.334v-2.609h2.334v-3.8z" class="prefix__cls-2" data-name="Path 37398" transform="translate(-610.094 377.47)"/>
                    <path id="prefix__Path_37399" d="M697.109-364.678c0-5.053 2.976-8.227 7.615-8.227 4.655 0 7.617 3.175 7.617 8.227s-2.946 8.227-7.617 8.227-7.615-3.16-7.615-8.227zm11.873 0c0-3.465-1.587-5.51-4.258-5.51s-4.258 2.061-4.258 5.51c0 3.48 1.587 5.51 4.258 5.51s4.258-2.032 4.258-5.51z" class="prefix__cls-2" data-name="Path 37399" transform="translate(-605.529 379.041)"/>
                    <path id="prefix__Path_37400" d="M707.23-372.72h3.143v2.733h.076a3.831 3.831 0 0 1 3.863-2.9 5.115 5.115 0 0 1 1.13.122v3.084a4.584 4.584 0 0 0-1.481-.2c-2.121 0-3.435 1.437-3.435 3.694v9.524h-3.3z" class="prefix__cls-2" data-name="Path 37400" transform="translate(-597.7 379.054)"/>
                    <path id="prefix__Path_37401" d="M726.745-361.367c-.443 2.916-3.281 4.916-6.913 4.916-4.671 0-7.571-3.13-7.571-8.151 0-5.037 2.916-8.3 7.433-8.3 4.443 0 7.236 3.052 7.236 7.92v1.13h-11.342v.2c0 2.747 1.726 4.549 4.32 4.549a3.635 3.635 0 0 0 3.708-2.259zm-11.145-4.792h8.027a3.861 3.861 0 0 0-3.937-4.076 4.065 4.065 0 0 0-4.09 4.076z" class="prefix__cls-2" data-name="Path 37401" transform="translate(-593.809 379.041)"/>
                </g>
            </g>
        </g>
        <g id="prefix__Group_8138" data-name="Group 8138" transform="translate(674.307 -379.273)">
            <g id="prefix__Group_8137" data-name="Group 8137">
                <path id="prefix__Path_37402" d="M653.316-374.922h-6.6v-10.583h1.644v9.072h4.957z" class="prefix__cls-2" data-name="Path 37402" transform="translate(-646.715 386.026)"/>
                <path id="prefix__Path_37403" d="M651.373-378.245c0-1.438 1.071-2.267 2.971-2.385l2.164-.124v-.69c0-.842-.559-1.32-1.635-1.32-.88 0-1.49.323-1.665.889h-1.525c.161-1.373 1.451-2.252 3.263-2.252 2 0 3.13 1 3.13 2.683v5.457h-1.516v-1.123h-.124a2.687 2.687 0 0 1-2.4 1.254 2.413 2.413 0 0 1-2.663-2.389zm5.134-.683v-.669l-1.951.126c-1.1.073-1.6.447-1.6 1.151s.622 1.137 1.481 1.137a1.883 1.883 0 0 0 2.07-1.745z" class="prefix__cls-2" data-name="Path 37403" transform="translate(-643.112 387.092)"/>
                <path id="prefix__Path_37404" d="M659.632-384.128c1.8 0 2.971.835 3.125 2.243h-1.511c-.145-.585-.72-.959-1.614-.959s-1.548.417-1.548 1.041c0 .477.4.777 1.27.975l1.327.307c1.52.353 2.231 1.006 2.231 2.18 0 1.5-1.4 2.508-3.308 2.508s-3.139-.858-3.279-2.274h1.575a1.619 1.619 0 0 0 1.736 1c.982 0 1.681-.44 1.681-1.078 0-.475-.374-.784-1.176-.974l-1.392-.325c-1.518-.358-2.222-1.039-2.222-2.228.003-1.419 1.301-2.416 3.105-2.416z" class="prefix__cls-2" data-name="Path 37404" transform="translate(-639.282 387.092)"/>
                <path id="prefix__Path_37405" d="M663.646-385.162v2.025h1.731v1.327h-1.731v4.107c0 .835.346 1.2 1.13 1.2a4.947 4.947 0 0 0 .6-.037v1.314a5.257 5.257 0 0 1-.858.08c-1.752 0-2.449-.617-2.449-2.157v-4.51H660.8v-1.327h1.268v-2.025z" class="prefix__cls-2" data-name="Path 37405" transform="translate(-635.82 386.292)"/>
                <path id="prefix__Path_37406" d="M667-383.974h1.518v1.27h.117a2.391 2.391 0 0 1 2.384-1.424c1.782 0 2.763 1.071 2.763 2.971v5.17H672.2v-4.774c0-1.282-.559-1.921-1.724-1.921a1.831 1.831 0 0 0-1.906 2.023v4.671H667z" class="prefix__cls-2" data-name="Path 37406" transform="translate(-631.028 387.092)"/>
                <path id="prefix__Path_37407" d="M679.121-378.144a3.241 3.241 0 0 1-3.46 2.311c-2.288 0-3.689-1.57-3.689-4.122s1.43-4.173 3.682-4.173c2.222 0 3.563 1.518 3.563 4.026v.55h-5.64v.089a2.11 2.11 0 0 0 2.126 2.288 1.912 1.912 0 0 0 1.9-.968zm-5.544-2.573h4.033a1.925 1.925 0 0 0-1.965-2.068 2.042 2.042 0 0 0-2.068 2.068z" class="prefix__cls-2" data-name="Path 37407" transform="translate(-627.179 387.092)"/>
                <path id="prefix__Path_37408" d="M677.027-378.691c0-2.524 1.3-4.123 3.315-4.123a2.632 2.632 0 0 1 2.449 1.4h.117v-4.386h1.577v11.1h-1.511v-1.261h-.124a2.772 2.772 0 0 1-2.508 1.392c-2.033.005-3.315-1.593-3.315-4.122zm1.628 0c0 1.694.8 2.712 2.133 2.712s2.149-1.034 2.149-2.7-.83-2.714-2.149-2.714-2.133 1.021-2.133 2.702z" class="prefix__cls-2" data-name="Path 37408" transform="translate(-623.269 385.799)"/>
                <path id="prefix__Path_37409" d="M686.024-381.35h-1.314v-1.327h1.314v-.779c0-1.628.887-2.3 2.55-2.3a4.747 4.747 0 0 1 .851.073v1.261a4.339 4.339 0 0 0-.7-.057c-.755 0-1.151.344-1.151 1.128v.676h1.782v1.327H687.6v6.622h-1.575z" class="prefix__cls-2" data-name="Path 37409" transform="translate(-617.326 385.831)"/>
                <path id="prefix__Path_37410" d="M688.463-383.983h1.518v1.225h.117a2.165 2.165 0 0 1 2.156-1.359 3.3 3.3 0 0 1 .7.067v1.555a4.316 4.316 0 0 0-.881-.1 1.871 1.871 0 0 0-2.038 1.876V-376h-1.577z" class="prefix__cls-2" data-name="Path 37410" transform="translate(-614.423 387.101)"/>
                <path id="prefix__Path_37411" d="M691.7-378.245c0-1.438 1.069-2.267 2.97-2.385l2.162-.124v-.69c0-.842-.557-1.32-1.635-1.32-.88 0-1.488.323-1.664.889H692c.16-1.373 1.451-2.252 3.261-2.252 2 0 3.132 1 3.132 2.683v5.457h-1.516v-1.123h-.126a2.683 2.683 0 0 1-2.4 1.254 2.412 2.412 0 0 1-2.651-2.389zm5.133-.683v-.669l-1.949.126c-1.1.073-1.6.447-1.6 1.151s.624 1.137 1.481 1.137a1.882 1.882 0 0 0 2.064-1.745z" class="prefix__cls-2" data-name="Path 37411" transform="translate(-611.922 387.092)"/>
            </g>
        </g>
    </g>
</svg>
