<svg xmlns="http://www.w3.org/2000/svg" width="212.224" height="70.94" viewBox="0 0 212.224 70.94">
    <defs>
        <style>
            .prefix__cls-2{fill:#fff}
        </style>
    </defs>
    <g id="prefix__Group_8424" data-name="Group 8424" transform="translate(-610.269 275.384)">
        <g id="prefix__Group_8156" data-name="Group 8156" transform="translate(610.269 -275.384)">
            <g id="prefix__Group_8151" data-name="Group 8151">
                <g id="prefix__Group_8150" data-name="Group 8150">
                    <path id="prefix__Path_37437" fill="#b6b6b6" d="M805.593-275.384H625.237c-.543 0-1.082.012-1.63.021a23.556 23.556 0 0 0-3.554.314 11.8 11.8 0 0 0-3.371 1.112 11.426 11.426 0 0 0-2.87 2.091 11.085 11.085 0 0 0-2.091 2.875 11.71 11.71 0 0 0-1.108 3.375 23.184 23.184 0 0 0-.318 3.551c-.016.544-.018 1.089-.027 1.633v40.993c.009.552.011 1.085.027 1.635a23.184 23.184 0 0 0 .318 3.551 11.686 11.686 0 0 0 1.108 3.377 11.032 11.032 0 0 0 2.091 2.864 11.12 11.12 0 0 0 2.87 2.089 11.874 11.874 0 0 0 3.371 1.119 24.029 24.029 0 0 0 3.554.314c.548.012 1.087.02 1.63.02h182.278c.539 0 1.094-.007 1.635-.02a23.724 23.724 0 0 0 3.547-.314 12.029 12.029 0 0 0 3.384-1.119 11.146 11.146 0 0 0 2.868-2.089 11.348 11.348 0 0 0 2.1-2.864 11.724 11.724 0 0 0 1.1-3.377 23.853 23.853 0 0 0 .328-3.551c.007-.55.007-1.084.007-1.635.014-.644.014-1.284.014-1.94v-37.116c0-.649 0-1.295-.014-1.937 0-.544 0-1.089-.007-1.633a23.853 23.853 0 0 0-.328-3.551 11.748 11.748 0 0 0-1.1-3.375 11.4 11.4 0 0 0-2.1-2.875 11.453 11.453 0 0 0-2.868-2.091 11.958 11.958 0 0 0-3.384-1.112 23.262 23.262 0 0 0-3.547-.314c-.541-.009-1.1-.018-1.635-.021h-1.922z" data-name="Path 37437" transform="translate(-610.269 275.384)"/>
                    <path id="prefix__Path_37438" d="M624.571-206.673c-.541 0-1.068-.007-1.6-.02a22.621 22.621 0 0 1-3.316-.289 10.46 10.46 0 0 1-2.937-.972 9.539 9.539 0 0 1-2.478-1.8 9.446 9.446 0 0 1-1.811-2.476 10.2 10.2 0 0 1-.963-2.939 22 22 0 0 1-.294-3.325c-.012-.374-.026-1.619-.026-1.619v-40.97s.016-1.225.026-1.587a21.9 21.9 0 0 1 .293-3.32 10.19 10.19 0 0 1 .965-2.948 9.525 9.525 0 0 1 1.8-2.479 9.825 9.825 0 0 1 2.486-1.812 10.315 10.315 0 0 1 2.933-.965 22.153 22.153 0 0 1 3.325-.291l1.6-.021h182.258l1.619.021a21.942 21.942 0 0 1 3.3.289 10.5 10.5 0 0 1 2.964.972 9.765 9.765 0 0 1 2.469 1.8 9.866 9.866 0 0 1 1.814 2.492 10.162 10.162 0 0 1 .949 2.924 22.7 22.7 0 0 1 .309 3.347c.005.5.005 1.041.005 1.578.014.665.014 1.3.014 1.937v37.116c0 .646 0 1.273-.014 1.908 0 .576 0 1.1-.007 1.648a22.281 22.281 0 0 1-.3 3.288 10.144 10.144 0 0 1-.958 2.962 9.741 9.741 0 0 1-1.8 2.458 9.6 9.6 0 0 1-2.483 1.813 10.4 10.4 0 0 1-2.958.975 22.336 22.336 0 0 1-3.315.289c-.52.012-1.062.02-1.591.02h-1.922z" data-name="Path 37438" transform="translate(-609.594 276.061)"/>
                </g>
            </g>
            <g id="prefix__Group_8155" data-name="Group 8155" transform="translate(17.685 15.465)">
                <g id="prefix__Group_8153" data-name="Group 8153">
                    <g id="prefix__Group_8152" data-name="Group 8152">
                        <path id="prefix__Path_37439" d="M646.484-250.19a8.778 8.778 0 0 1 4.178-7.364 8.981 8.981 0 0 0-7.078-3.825c-2.978-.314-5.865 1.781-7.383 1.781-1.546 0-3.882-1.75-6.4-1.7a9.43 9.43 0 0 0-7.933 4.838c-3.43 5.939-.871 14.667 2.414 19.466 1.644 2.352 3.565 4.976 6.079 4.882 2.46-.1 3.379-1.568 6.347-1.568 2.942 0 3.8 1.568 6.369 1.509 2.641-.043 4.3-2.361 5.89-4.733a19.423 19.423 0 0 0 2.692-5.485 8.477 8.477 0 0 1-5.175-7.801z" class="prefix__cls-2" data-name="Path 37439" transform="translate(-620.241 270.727)"/>
                        <path id="prefix__Path_37440" d="M634.829-260.475a8.642 8.642 0 0 0 1.977-6.189 8.792 8.792 0 0 0-5.689 2.942 8.22 8.22 0 0 0-2.027 5.962 7.267 7.267 0 0 0 5.739-2.715z" class="prefix__cls-2" data-name="Path 37440" transform="translate(-613.431 266.664)"/>
                    </g>
                </g>
                <g id="prefix__Group_8154" data-name="Group 8154" transform="translate(43.372 16.229)">
                    <path id="prefix__Path_37441" d="M658.662-241.236h-8.394l-2.017 5.954H644.7l7.952-22.023h3.694l7.951 22.023h-3.616zm-7.525-2.747h6.654l-3.281-9.66h-.09z" class="prefix__cls-2" data-name="Path 37441" transform="translate(-644.696 257.673)"/>
                    <path id="prefix__Path_37442" d="M672.026-245.84c0 4.991-2.671 8.2-6.7 8.2a5.441 5.441 0 0 1-5.051-2.809h-.075v7.954h-3.3v-21.369h3.19v2.671h.06a5.7 5.7 0 0 1 5.113-2.839c4.076-.005 6.763 3.217 6.763 8.192zm-3.387 0c0-3.251-1.681-5.388-4.244-5.388-2.518 0-4.212 2.183-4.212 5.388 0 3.237 1.694 5.4 4.212 5.4 2.562.002 4.244-2.119 4.244-5.4z" class="prefix__cls-2" data-name="Path 37442" transform="translate(-635.256 260.202)"/>
                    <path id="prefix__Path_37443" d="M681.991-245.84c0 4.991-2.671 8.2-6.7 8.2a5.441 5.441 0 0 1-5.051-2.809h-.076v7.954h-3.3v-21.369h3.191v2.671h.06a5.7 5.7 0 0 1 5.113-2.839c4.072-.005 6.763 3.217 6.763 8.192zm-3.389 0c0-3.251-1.679-5.388-4.242-5.388-2.518 0-4.212 2.183-4.212 5.388 0 3.237 1.694 5.4 4.212 5.4 2.563.002 4.24-2.119 4.24-5.4z" class="prefix__cls-2" data-name="Path 37443" transform="translate(-627.548 260.202)"/>
                    <path id="prefix__Path_37444" d="M683.45-241.259c.245 2.183 2.366 3.618 5.265 3.618 2.779 0 4.778-1.435 4.778-3.4 0-1.71-1.206-2.733-4.06-3.435l-2.855-.686c-4.043-.977-5.922-2.87-5.922-5.938 0-3.8 3.311-6.409 8.014-6.409 4.654 0 7.844 2.609 7.951 6.409h-3.327c-.2-2.2-2.015-3.524-4.671-3.524s-4.471 1.341-4.471 3.3c0 1.557 1.16 2.474 4 3.175l2.426.6c4.519 1.069 6.4 2.884 6.4 6.1 0 4.122-3.281 6.7-8.5 6.7-4.884 0-8.183-2.52-8.4-6.5z" class="prefix__cls-2" data-name="Path 37444" transform="translate(-617.329 257.513)"/>
                    <path id="prefix__Path_37445" d="M696.077-256.085v3.8h3.054v2.611h-3.054v8.852c0 1.374.612 2.016 1.954 2.016a10.6 10.6 0 0 0 1.084-.076v2.595a9.171 9.171 0 0 1-1.83.151c-3.251 0-4.519-1.22-4.519-4.334v-9.2h-2.334v-2.611h2.334v-3.8z" class="prefix__cls-2" data-name="Path 37445" transform="translate(-609.319 258.618)"/>
                    <path id="prefix__Path_37446" d="M696.334-245.827c0-5.051 2.976-8.226 7.615-8.226 4.655 0 7.617 3.175 7.617 8.226 0 5.067-2.946 8.227-7.617 8.227s-7.615-3.161-7.615-8.227zm11.874 0c0-3.465-1.587-5.51-4.258-5.51s-4.256 2.061-4.256 5.51c0 3.48 1.585 5.51 4.256 5.51s4.258-2.031 4.258-5.51z" class="prefix__cls-2" data-name="Path 37446" transform="translate(-604.754 260.189)"/>
                    <path id="prefix__Path_37447" d="M706.455-253.869h3.145v2.733h.076a3.83 3.83 0 0 1 3.861-2.9 4.99 4.99 0 0 1 1.13.124v3.082a4.6 4.6 0 0 0-1.481-.2c-2.121 0-3.435 1.435-3.435 3.694v9.524h-3.3z" class="prefix__cls-2" data-name="Path 37447" transform="translate(-596.925 260.202)"/>
                    <path id="prefix__Path_37448" d="M725.97-242.515c-.443 2.914-3.281 4.914-6.913 4.914-4.672 0-7.571-3.13-7.571-8.151 0-5.037 2.916-8.3 7.433-8.3 4.443 0 7.236 3.05 7.236 7.919V-245h-11.342v.2c0 2.747 1.726 4.549 4.32 4.549a3.633 3.633 0 0 0 3.708-2.258zm-11.141-4.794h8.027a3.86 3.86 0 0 0-3.937-4.074 4.065 4.065 0 0 0-4.09 4.075z" class="prefix__cls-2" data-name="Path 37448" transform="translate(-593.034 260.189)"/>
                </g>
            </g>
        </g>
        <g id="prefix__Group_8158" data-name="Group 8158" transform="translate(673.101 -261.162)">
            <g id="prefix__Group_8157" data-name="Group 8157">
                <path id="prefix__Path_37449" d="M645.7-261.247c0-3.432 1.825-5.551 4.765-5.551a4.229 4.229 0 0 1 4.4 3.666h-1.637a2.722 2.722 0 0 0-2.765-2.134c-1.9 0-3.088 1.546-3.088 4.019s1.188 4.012 3.095 4.012a2.653 2.653 0 0 0 2.758-1.951h1.637a4.131 4.131 0 0 1-4.395 3.483c-2.941.003-4.77-2.119-4.77-5.544z" class="prefix__cls-2" data-name="Path 37449" transform="translate(-645.697 267.804)"/>
                <path id="prefix__Path_37450" d="M651.879-261.133c0-2.575 1.438-4.143 3.769-4.143s3.763 1.568 3.763 4.143-1.429 4.15-3.763 4.15-3.769-1.563-3.769-4.15zm5.911 0c0-1.731-.777-2.744-2.142-2.744s-2.141 1.013-2.141 2.744.771 2.749 2.141 2.749 2.142-1.016 2.142-2.749z" class="prefix__cls-2" data-name="Path 37450" transform="translate(-640.915 268.981)"/>
                <path id="prefix__Path_37451" d="M657.319-265.123h1.516v1.27h.119a2.387 2.387 0 0 1 2.382-1.422c1.782 0 2.765 1.069 2.765 2.969v5.17h-1.577v-4.774c0-1.282-.557-1.921-1.722-1.921a1.83 1.83 0 0 0-1.906 2.024v4.671h-1.577z" class="prefix__cls-2" data-name="Path 37451" transform="translate(-636.707 268.981)"/>
                <path id="prefix__Path_37452" d="M665.607-265.276c1.795 0 2.969.835 3.123 2.243h-1.511c-.145-.587-.72-.961-1.612-.961s-1.548.417-1.548 1.041c0 .477.4.779 1.268.975l1.327.309c1.52.351 2.231 1.006 2.231 2.178 0 1.5-1.4 2.508-3.308 2.508s-3.139-.858-3.279-2.272h1.578a1.619 1.619 0 0 0 1.736 1c.983 0 1.681-.442 1.681-1.078 0-.477-.374-.786-1.174-.975l-1.394-.323c-1.518-.36-2.22-1.041-2.22-2.229 0-1.419 1.295-2.416 3.102-2.416z" class="prefix__cls-2" data-name="Path 37452" transform="translate(-632.856 268.981)"/>
                <path id="prefix__Path_37453" d="M667.134-264.843l1.841-2.522h1.848l-2.061 2.522zm.163 1.335h1.57v7.986H667.3z" class="prefix__cls-2" data-name="Path 37453" transform="translate(-629.116 267.365)"/>
                <path id="prefix__Path_37454" d="M669.633-256.347h1.612c.133.58.8.954 1.864.954 1.312 0 2.089-.624 2.089-1.68v-1.527h-.117a2.69 2.69 0 0 1-2.465 1.341c-2.038 0-3.3-1.577-3.3-3.967 0-2.435 1.275-4.033 3.315-4.033a2.767 2.767 0 0 1 2.508 1.408h.124v-1.277h1.511v8.052c0 1.827-1.431 2.987-3.689 2.987-1.994-.005-3.285-.901-3.452-2.258zm5.6-4.891c0-1.591-.823-2.611-2.166-2.611s-2.118 1.02-2.118 2.611.763 2.611 2.118 2.611 2.161-1.011 2.161-2.611z" class="prefix__cls-2" data-name="Path 37454" transform="translate(-627.427 268.99)"/>
                <path id="prefix__Path_37455" d="M681.7-257.2h-1.518v-1.268h-.124a2.4 2.4 0 0 1-2.414 1.422c-1.766 0-2.751-1.078-2.751-2.955v-5.186h1.578v4.774c0 1.291.52 1.908 1.678 1.908a1.815 1.815 0 0 0 1.974-2.011v-4.671h1.577z" class="prefix__cls-2" data-name="Path 37455" transform="translate(-623.112 269.047)"/>
                <path id="prefix__Path_37456" d="M687.076-259.292a3.242 3.242 0 0 1-3.46 2.309c-2.288 0-3.689-1.568-3.689-4.122s1.429-4.171 3.682-4.171c2.222 0 3.563 1.516 3.563 4.026v.55h-5.64v.087a2.11 2.11 0 0 0 2.126 2.288 1.919 1.919 0 0 0 1.9-.967zm-5.544-2.575h4.033a1.925 1.925 0 0 0-1.965-2.068 2.042 2.042 0 0 0-2.068 2.068z" class="prefix__cls-2" data-name="Path 37456" transform="translate(-619.22 268.981)"/>
                <path id="prefix__Path_37457" d="M685.246-266.947h1.577v11.1h-1.577z" class="prefix__cls-2" data-name="Path 37457" transform="translate(-615.106 267.688)"/>
                <path id="prefix__Path_37458" d="M687.37-261.133c0-2.575 1.438-4.143 3.769-4.143s3.763 1.568 3.763 4.143-1.429 4.15-3.763 4.15-3.769-1.563-3.769-4.15zm5.911 0c0-1.731-.777-2.744-2.142-2.744S689-262.864 689-261.133s.771 2.749 2.141 2.749 2.14-1.016 2.14-2.749z" class="prefix__cls-2" data-name="Path 37458" transform="translate(-613.463 268.981)"/>
                <path id="prefix__Path_37459" d="M702.18-259.292a3.244 3.244 0 0 1-3.462 2.309c-2.288 0-3.689-1.568-3.689-4.122s1.431-4.171 3.682-4.171c2.222 0 3.563 1.516 3.563 4.026v.55h-5.638v.087a2.11 2.11 0 0 0 2.126 2.288 1.914 1.914 0 0 0 1.9-.967zm-5.544-2.575h4.033a1.926 1.926 0 0 0-1.965-2.068 2.04 2.04 0 0 0-2.068 2.068z" class="prefix__cls-2" data-name="Path 37459" transform="translate(-607.539 268.981)"/>
                <path id="prefix__Path_37460" d="M700.308-265.123h1.516v1.27h.117a2.391 2.391 0 0 1 2.383-1.422c1.782 0 2.765 1.069 2.765 2.969v5.17h-1.577v-4.774c0-1.282-.557-1.921-1.724-1.921a1.831 1.831 0 0 0-1.906 2.024v4.671h-1.575z" class="prefix__cls-2" data-name="Path 37460" transform="translate(-603.455 268.981)"/>
                <path id="prefix__Path_37461" d="M714.875-259.292a3.242 3.242 0 0 1-3.46 2.309c-2.288 0-3.689-1.568-3.689-4.122s1.429-4.171 3.682-4.171c2.222 0 3.563 1.516 3.563 4.026v.55h-5.64v.087a2.11 2.11 0 0 0 2.126 2.288 1.914 1.914 0 0 0 1.9-.967zm-5.544-2.575h4.033a1.925 1.925 0 0 0-1.965-2.068 2.042 2.042 0 0 0-2.068 2.068z" class="prefix__cls-2" data-name="Path 37461" transform="translate(-597.718 268.981)"/>
                <path id="prefix__Path_37462" d="M713.045-266.947h1.577v11.1h-1.577z" class="prefix__cls-2" data-name="Path 37462" transform="translate(-593.603 267.688)"/>
            </g>
        </g>
    </g>
</svg>
