<svg xmlns="http://www.w3.org/2000/svg" width="212.224" height="70.94" viewBox="0 0 212.224 70.94">
    <defs>
        <style>
            .prefix__cls-2{fill:#fff}
        </style>
    </defs>
    <g id="prefix__Group_8423" data-name="Group 8423" transform="translate(-610.401 333.832)">
        <g id="prefix__Group_8146" data-name="Group 8146" transform="translate(610.401 -333.832)">
            <g id="prefix__Group_8141" data-name="Group 8141">
                <g id="prefix__Group_8140" data-name="Group 8140">
                    <path id="prefix__Path_37412" fill="#b6b6b6" d="M805.725-333.832H625.369c-.543 0-1.082.014-1.63.023a23.314 23.314 0 0 0-3.554.314 11.788 11.788 0 0 0-3.371 1.112 11.432 11.432 0 0 0-2.871 2.089 11.139 11.139 0 0 0-2.089 2.875 11.738 11.738 0 0 0-1.108 3.377 23.137 23.137 0 0 0-.317 3.551c-.016.543-.018 1.089-.027 1.633v40.993c.009.55.01 1.084.027 1.635a23.138 23.138 0 0 0 .317 3.551 11.686 11.686 0 0 0 1.108 3.377 10.988 10.988 0 0 0 2.089 2.862 11.14 11.14 0 0 0 2.871 2.091 11.911 11.911 0 0 0 3.371 1.119 24 24 0 0 0 3.554.314c.548.011 1.087.018 1.63.018h182.278c.539 0 1.094-.007 1.635-.018a23.746 23.746 0 0 0 3.547-.314 12.122 12.122 0 0 0 3.384-1.119 11.151 11.151 0 0 0 2.868-2.091 11.349 11.349 0 0 0 2.1-2.862 11.774 11.774 0 0 0 1.1-3.377 23.837 23.837 0 0 0 .328-3.551c.007-.552.007-1.085.007-1.635.014-.644.014-1.286.014-1.94v-37.115c0-.649 0-1.293-.014-1.935 0-.544 0-1.091-.007-1.633a23.836 23.836 0 0 0-.328-3.551 11.827 11.827 0 0 0-1.1-3.377 11.509 11.509 0 0 0-2.1-2.875 11.445 11.445 0 0 0-2.868-2.089 12 12 0 0 0-3.384-1.112 23.067 23.067 0 0 0-3.547-.314c-.541-.009-1.1-.019-1.635-.023h-1.922z" data-name="Path 37412" transform="translate(-610.401 333.832)"/>
                    <path id="prefix__Path_37413" d="M624.7-265.121c-.541 0-1.068-.007-1.6-.018a22.4 22.4 0 0 1-3.315-.291 10.436 10.436 0 0 1-2.937-.97 9.579 9.579 0 0 1-2.478-1.8 9.385 9.385 0 0 1-1.811-2.478 10.111 10.111 0 0 1-.963-2.939 21.98 21.98 0 0 1-.294-3.325c-.012-.374-.027-1.619-.027-1.619v-40.968s.016-1.227.027-1.587a21.918 21.918 0 0 1 .293-3.32 10.174 10.174 0 0 1 .965-2.948 9.469 9.469 0 0 1 1.8-2.479 9.876 9.876 0 0 1 2.486-1.814 10.317 10.317 0 0 1 2.932-.963 22.451 22.451 0 0 1 3.327-.293l1.6-.021h182.259l1.619.023a21.933 21.933 0 0 1 3.3.289 10.5 10.5 0 0 1 2.964.97 9.809 9.809 0 0 1 2.469 1.8 9.851 9.851 0 0 1 1.814 2.49 10.2 10.2 0 0 1 .949 2.924 22.757 22.757 0 0 1 .309 3.347c.005.5.005 1.043.005 1.58.014.665.014 1.3.014 1.935v37.118c0 .644 0 1.273-.014 1.907 0 .576 0 1.1-.007 1.649a22.258 22.258 0 0 1-.3 3.286 10.114 10.114 0 0 1-.958 2.962 9.679 9.679 0 0 1-1.8 2.458 9.6 9.6 0 0 1-2.483 1.814 10.4 10.4 0 0 1-2.958.974 22.118 22.118 0 0 1-3.315.291c-.52.011-1.064.018-1.591.018h-1.922z" data-name="Path 37413" transform="translate(-609.726 334.509)"/>
                </g>
            </g>
            <g id="prefix__Group_8145" data-name="Group 8145" transform="translate(17.684 15.467)">
                <g id="prefix__Group_8143" data-name="Group 8143">
                    <g id="prefix__Group_8142" data-name="Group 8142">
                        <path id="prefix__Path_37414" d="M646.616-308.636a8.775 8.775 0 0 1 4.178-7.364 8.981 8.981 0 0 0-7.078-3.827c-2.978-.312-5.865 1.782-7.383 1.782-1.546 0-3.884-1.75-6.4-1.7a9.424 9.424 0 0 0-7.933 4.839c-3.43 5.938-.872 14.665 2.414 19.466 1.644 2.35 3.565 4.976 6.08 4.882 2.46-.1 3.378-1.568 6.347-1.568 2.942 0 3.8 1.568 6.369 1.509 2.639-.043 4.3-2.361 5.89-4.734a19.429 19.429 0 0 0 2.692-5.485 8.48 8.48 0 0 1-5.176-7.8z" class="prefix__cls-2" data-name="Path 37414" transform="translate(-620.372 329.173)"/>
                        <path id="prefix__Path_37415" d="M634.961-318.921a8.642 8.642 0 0 0 1.978-6.19 8.785 8.785 0 0 0-5.689 2.942 8.227 8.227 0 0 0-2.029 5.963 7.268 7.268 0 0 0 5.74-2.715z" class="prefix__cls-2" data-name="Path 37415" transform="translate(-613.563 325.111)"/>
                    </g>
                </g>
                <g id="prefix__Group_8144" data-name="Group 8144" transform="translate(43.372 16.228)">
                    <path id="prefix__Path_37416" d="M658.794-299.683H650.4l-2.016 5.952h-3.556l7.952-22.023h3.694l7.951 22.023h-3.616zm-7.525-2.747h6.654l-3.281-9.66h-.091z" class="prefix__cls-2" data-name="Path 37416" transform="translate(-644.828 316.121)"/>
                    <path id="prefix__Path_37417" d="M672.158-304.287c0 4.989-2.671 8.2-6.7 8.2a5.441 5.441 0 0 1-5.051-2.809h-.076v7.952h-3.3v-21.367h3.191v2.669h.06a5.7 5.7 0 0 1 5.113-2.838c4.076-.004 6.763 3.217 6.763 8.193zm-3.389 0c0-3.251-1.68-5.388-4.242-5.388-2.518 0-4.212 2.181-4.212 5.388 0 3.235 1.694 5.4 4.212 5.4 2.562.002 4.242-2.119 4.242-5.4z" class="prefix__cls-2" data-name="Path 37417" transform="translate(-635.388 318.65)"/>
                    <path id="prefix__Path_37418" d="M682.122-304.287c0 4.989-2.669 8.2-6.7 8.2a5.445 5.445 0 0 1-5.053-2.809h-.076v7.952H667v-21.367h3.191v2.669h.06a5.7 5.7 0 0 1 5.113-2.838c4.072-.004 6.758 3.217 6.758 8.193zm-3.388 0c0-3.251-1.679-5.388-4.242-5.388-2.518 0-4.212 2.181-4.212 5.388 0 3.235 1.694 5.4 4.212 5.4 2.563.002 4.242-2.119 4.242-5.4z" class="prefix__cls-2" data-name="Path 37418" transform="translate(-627.68 318.65)"/>
                    <path id="prefix__Path_37419" d="M683.582-299.707c.245 2.185 2.366 3.618 5.265 3.618 2.777 0 4.776-1.433 4.776-3.4 0-1.708-1.2-2.733-4.06-3.433l-2.854-.688c-4.044-.977-5.922-2.868-5.922-5.936 0-3.8 3.311-6.411 8.014-6.411 4.654 0 7.844 2.611 7.951 6.411h-3.327c-.2-2.2-2.016-3.526-4.671-3.526s-4.471 1.343-4.471 3.3c0 1.557 1.16 2.472 4 3.175l2.426.6c4.519 1.068 6.4 2.884 6.4 6.1 0 4.12-3.281 6.7-8.5 6.7-4.884 0-8.181-2.52-8.394-6.5z" class="prefix__cls-2" data-name="Path 37419" transform="translate(-617.461 315.961)"/>
                    <path id="prefix__Path_37420" d="M696.21-314.532v3.8h3.054v2.609h-3.054v8.853c0 1.374.612 2.015 1.954 2.015a10.118 10.118 0 0 0 1.084-.076v2.595a9.02 9.02 0 0 1-1.83.152c-3.251 0-4.519-1.22-4.519-4.334v-9.2h-2.336v-2.609h2.337v-3.8z" class="prefix__cls-2" data-name="Path 37420" transform="translate(-609.452 317.066)"/>
                    <path id="prefix__Path_37421" d="M696.466-304.274c0-5.053 2.976-8.227 7.615-8.227 4.655 0 7.617 3.175 7.617 8.227s-2.946 8.227-7.617 8.227-7.615-3.162-7.615-8.227zm11.874 0c0-3.465-1.587-5.51-4.258-5.51s-4.258 2.061-4.258 5.51c0 3.48 1.587 5.508 4.258 5.508s4.258-2.028 4.258-5.508z" class="prefix__cls-2" data-name="Path 37421" transform="translate(-604.886 318.637)"/>
                    <path id="prefix__Path_37422" d="M706.587-312.316h3.143v2.733h.076a3.831 3.831 0 0 1 3.863-2.9 5.112 5.112 0 0 1 1.13.122v3.084a4.584 4.584 0 0 0-1.481-.2c-2.121 0-3.435 1.436-3.435 3.694v9.524h-3.3z" class="prefix__cls-2" data-name="Path 37422" transform="translate(-597.057 318.65)"/>
                    <path id="prefix__Path_37423" d="M726.1-300.963c-.443 2.916-3.281 4.916-6.913 4.916-4.671 0-7.571-3.13-7.571-8.151 0-5.037 2.916-8.3 7.433-8.3 4.441 0 7.236 3.052 7.236 7.92v1.13h-11.34v.2c0 2.747 1.726 4.549 4.32 4.549a3.636 3.636 0 0 0 3.708-2.259zm-11.141-4.792h8.027a3.86 3.86 0 0 0-3.937-4.075 4.065 4.065 0 0 0-4.088 4.075z" class="prefix__cls-2" data-name="Path 37423" transform="translate(-593.166 318.637)"/>
                </g>
            </g>
        </g>
        <g id="prefix__Group_8148" data-name="Group 8148" transform="translate(673.664 -318.869)">
            <g id="prefix__Group_8147" data-name="Group 8147">
                <path id="prefix__Path_37424" d="M649.894-325.1c3.139 0 4.98 1.93 4.98 5.258 0 3.38-1.828 5.324-4.98 5.324h-3.822V-325.1zm-2.178 9.086h2c2.213 0 3.488-1.378 3.488-3.806 0-2.391-1.3-3.785-3.488-3.785h-2z" class="prefix__cls-2" data-name="Path 37424" transform="translate(-646.072 325.622)"/>
                <path id="prefix__Path_37425" d="M652.082-319.579c0-2.575 1.437-4.145 3.769-4.145s3.763 1.569 3.763 4.145-1.431 4.15-3.763 4.15-3.769-1.563-3.769-4.15zm5.911 0c0-1.731-.779-2.744-2.142-2.744s-2.141 1.013-2.141 2.744.77 2.749 2.141 2.749 2.142-1.011 2.142-2.749z" class="prefix__cls-2" data-name="Path 37425" transform="translate(-641.423 326.687)"/>
                <path id="prefix__Path_37426" d="M665.845-315.651h-1.635l-1.649-5.881h-.126l-1.642 5.881h-1.621l-2.2-7.986h1.6l1.428 6.094h.119l1.641-6.094h1.513l1.642 6.094h.124l1.424-6.094h1.575z" class="prefix__cls-2" data-name="Path 37426" transform="translate(-637.643 326.755)"/>
                <path id="prefix__Path_37427" d="M664.254-323.57h1.518v1.268h.117a2.392 2.392 0 0 1 2.383-1.422c1.782 0 2.765 1.071 2.765 2.971v5.17h-1.577v-4.774c0-1.284-.559-1.921-1.724-1.921a1.831 1.831 0 0 0-1.907 2.024v4.671h-1.577z" class="prefix__cls-2" data-name="Path 37427" transform="translate(-632.008 326.687)"/>
                <path id="prefix__Path_37428" d="M669.495-325.395h1.575v11.1h-1.575z" class="prefix__cls-2" data-name="Path 37428" transform="translate(-627.954 325.395)"/>
                <path id="prefix__Path_37429" d="M671.619-319.579c0-2.575 1.437-4.145 3.769-4.145s3.763 1.569 3.763 4.145-1.431 4.15-3.763 4.15-3.769-1.563-3.769-4.15zm5.911 0c0-1.731-.779-2.744-2.142-2.744s-2.141 1.013-2.141 2.744.77 2.749 2.141 2.749 2.142-1.011 2.142-2.749z" class="prefix__cls-2" data-name="Path 37429" transform="translate(-626.311 326.687)"/>
                <path id="prefix__Path_37430" d="M676.8-317.841c0-1.438 1.069-2.266 2.971-2.385l2.162-.124v-.69c0-.842-.557-1.319-1.635-1.319-.88 0-1.488.323-1.664.888h-1.525c.16-1.373 1.451-2.252 3.261-2.252 2 0 3.132 1 3.132 2.683v5.457h-1.516v-1.123h-.126a2.683 2.683 0 0 1-2.4 1.254 2.412 2.412 0 0 1-2.66-2.389zm5.132-.683v-.669l-1.949.126c-1.1.073-1.6.447-1.6 1.151s.624 1.137 1.481 1.137a1.882 1.882 0 0 0 2.071-1.745z" class="prefix__cls-2" data-name="Path 37430" transform="translate(-622.302 326.687)"/>
                <path id="prefix__Path_37431" d="M681.749-318.287c0-2.524 1.3-4.123 3.315-4.123a2.634 2.634 0 0 1 2.449 1.4h.117v-4.386h1.577v11.1H687.7v-1.261h-.126a2.77 2.77 0 0 1-2.508 1.392c-2.033.005-3.317-1.593-3.317-4.122zm1.628 0c0 1.694.8 2.712 2.133 2.712s2.149-1.034 2.149-2.706-.83-2.712-2.149-2.712-2.133 1.025-2.133 2.706z" class="prefix__cls-2" data-name="Path 37431" transform="translate(-618.476 325.395)"/>
                <path id="prefix__Path_37432" d="M689.631-319.579c0-2.575 1.437-4.145 3.769-4.145s3.763 1.569 3.763 4.145-1.431 4.15-3.763 4.15-3.769-1.563-3.769-4.15zm5.911 0c0-1.731-.779-2.744-2.142-2.744s-2.141 1.013-2.141 2.744.77 2.749 2.141 2.749 2.142-1.011 2.142-2.749z" class="prefix__cls-2" data-name="Path 37432" transform="translate(-612.379 326.687)"/>
                <path id="prefix__Path_37433" d="M695.07-323.57h1.518v1.268h.117a2.392 2.392 0 0 1 2.384-1.422c1.782 0 2.765 1.071 2.765 2.971v5.17h-1.577v-4.774c0-1.284-.559-1.921-1.724-1.921a1.831 1.831 0 0 0-1.906 2.024v4.671h-1.577z" class="prefix__cls-2" data-name="Path 37433" transform="translate(-608.172 326.687)"/>
                <path id="prefix__Path_37434" d="M705.157-324.758v2.025h1.731v1.327h-1.731v4.107c0 .835.344 1.2 1.13 1.2a5.36 5.36 0 0 0 .6-.037v1.312a5.083 5.083 0 0 1-.858.082c-1.752 0-2.451-.617-2.451-2.157v-4.51h-1.266v-1.327h1.266v-2.025z" class="prefix__cls-2" data-name="Path 37434" transform="translate(-602.57 325.888)"/>
                <path id="prefix__Path_37435" d="M706.1-325.395h1.563v4.4h.126a2.456 2.456 0 0 1 2.435-1.431c1.7 0 2.749 1.078 2.749 2.978v5.156H711.4v-4.767c0-1.275-.594-1.921-1.708-1.921a1.865 1.865 0 0 0-2.011 2.023v4.664H706.1z" class="prefix__cls-2" data-name="Path 37435" transform="translate(-599.637 325.395)"/>
                <path id="prefix__Path_37436" d="M718.28-317.74a3.241 3.241 0 0 1-3.46 2.311c-2.288 0-3.689-1.569-3.689-4.122s1.429-4.173 3.682-4.173c2.222 0 3.563 1.518 3.563 4.026v.55h-5.64v.089a2.11 2.11 0 0 0 2.126 2.288 1.915 1.915 0 0 0 1.9-.968zm-5.544-2.573h4.035a1.928 1.928 0 0 0-1.967-2.068 2.042 2.042 0 0 0-2.068 2.067z" class="prefix__cls-2" data-name="Path 37436" transform="translate(-595.749 326.687)"/>
            </g>
        </g>
    </g>
</svg>
