<svg xmlns="http://www.w3.org/2000/svg" width="212.224" height="70.94" viewBox="0 0 212.224 70.94">
    <defs>
        <style>
            .prefix__cls-2{fill:#fff}
        </style>
    </defs>
    <g id="prefix__Group_8419" data-name="Group 8419" transform="translate(-611.207 512.116)">
        <g id="prefix__Group_8109" data-name="Group 8109" transform="translate(611.207 -512.116)">
            <g id="prefix__Group_8104" data-name="Group 8104">
                <g id="prefix__Group_8103" data-name="Group 8103">
                    <path id="prefix__Path_37334" fill="#b6b6b6" d="M806.531-512.116H626.175c-.543 0-1.082.013-1.63.021a23.534 23.534 0 0 0-3.554.314 11.8 11.8 0 0 0-3.371 1.112 11.426 11.426 0 0 0-2.87 2.091 11.09 11.09 0 0 0-2.091 2.875 11.721 11.721 0 0 0-1.108 3.375 23.16 23.16 0 0 0-.317 3.551c-.016.544-.018 1.089-.027 1.633v40.993c.009.552.011 1.084.027 1.635a23.16 23.16 0 0 0 .317 3.551 11.7 11.7 0 0 0 1.108 3.377 11.037 11.037 0 0 0 2.091 2.864 11.122 11.122 0 0 0 2.87 2.089 11.877 11.877 0 0 0 3.371 1.119 24.047 24.047 0 0 0 3.554.314c.548.012 1.087.019 1.63.019h182.279c.539 0 1.094-.007 1.635-.019a23.747 23.747 0 0 0 3.547-.314 12.031 12.031 0 0 0 3.384-1.119 11.142 11.142 0 0 0 2.868-2.089 11.351 11.351 0 0 0 2.1-2.864 11.725 11.725 0 0 0 1.1-3.377 23.869 23.869 0 0 0 .328-3.551c.007-.552.007-1.084.007-1.635.014-.644.014-1.284.014-1.94V-495.2c0-.651 0-1.295-.014-1.937 0-.544 0-1.089-.007-1.633a23.869 23.869 0 0 0-.328-3.551 11.748 11.748 0 0 0-1.1-3.375 11.406 11.406 0 0 0-2.1-2.875 11.447 11.447 0 0 0-2.868-2.091 11.957 11.957 0 0 0-3.384-1.112 23.245 23.245 0 0 0-3.547-.314c-.541-.009-1.1-.02-1.635-.021h-1.923z" data-name="Path 37334" transform="translate(-611.207 512.116)"/>
                    <path id="prefix__Path_37335" d="M625.509-443.4c-.541 0-1.068-.007-1.6-.02a22.617 22.617 0 0 1-3.316-.289 10.456 10.456 0 0 1-2.937-.972 9.576 9.576 0 0 1-2.478-1.8 9.44 9.44 0 0 1-1.811-2.476 10.2 10.2 0 0 1-.963-2.939 21.982 21.982 0 0 1-.294-3.325c-.012-.374-.026-1.621-.026-1.621v-40.968s.016-1.225.026-1.587a21.9 21.9 0 0 1 .293-3.32 10.189 10.189 0 0 1 .965-2.948 9.522 9.522 0 0 1 1.8-2.479 9.824 9.824 0 0 1 2.487-1.813 10.317 10.317 0 0 1 2.932-.965 22.2 22.2 0 0 1 3.327-.291l1.6-.021H807.77l1.619.021a21.948 21.948 0 0 1 3.3.289 10.5 10.5 0 0 1 2.964.972 9.763 9.763 0 0 1 2.469 1.8 9.864 9.864 0 0 1 1.814 2.492 10.162 10.162 0 0 1 .949 2.924 22.688 22.688 0 0 1 .309 3.347c.005.5.005 1.041.005 1.578.014.665.014 1.3.014 1.937v37.116c0 .646 0 1.273-.014 1.908 0 .576 0 1.1-.007 1.647a22.29 22.29 0 0 1-.3 3.288 10.148 10.148 0 0 1-.958 2.962 9.7 9.7 0 0 1-1.8 2.456 9.605 9.605 0 0 1-2.483 1.814 10.4 10.4 0 0 1-2.958.975 22.327 22.327 0 0 1-3.315.289c-.52.012-1.062.02-1.591.02h-1.923z" data-name="Path 37335" transform="translate(-610.532 512.793)"/>
                </g>
            </g>
            <g id="prefix__Group_8108" data-name="Group 8108" transform="translate(17.685 15.465)">
                <g id="prefix__Group_8106" data-name="Group 8106">
                    <g id="prefix__Group_8105" data-name="Group 8105">
                        <path id="prefix__Path_37336" d="M647.422-486.922a8.779 8.779 0 0 1 4.178-7.363 8.978 8.978 0 0 0-7.078-3.825c-2.978-.314-5.865 1.781-7.383 1.781-1.547 0-3.882-1.75-6.4-1.7a9.43 9.43 0 0 0-7.933 4.838c-3.43 5.938-.871 14.667 2.414 19.466 1.644 2.352 3.565 4.976 6.08 4.882 2.46-.1 3.379-1.568 6.347-1.568 2.942 0 3.8 1.568 6.369 1.509 2.641-.043 4.3-2.361 5.89-4.733a19.428 19.428 0 0 0 2.692-5.485 8.477 8.477 0 0 1-5.176-7.802z" class="prefix__cls-2" data-name="Path 37336" transform="translate(-621.179 507.459)"/>
                        <path id="prefix__Path_37337" d="M635.767-497.206a8.643 8.643 0 0 0 1.977-6.189 8.793 8.793 0 0 0-5.689 2.942 8.229 8.229 0 0 0-2.029 5.962 7.268 7.268 0 0 0 5.741-2.715z" class="prefix__cls-2" data-name="Path 37337" transform="translate(-614.37 503.396)"/>
                    </g>
                </g>
                <g id="prefix__Group_8107" data-name="Group 8107" transform="translate(43.371 16.229)">
                    <path id="prefix__Path_37338" d="M659.6-477.968h-8.394l-2.017 5.954h-3.556l7.952-22.023h3.694l7.951 22.023h-3.616zm-7.525-2.747h6.654l-3.281-9.66h-.091z" class="prefix__cls-2" data-name="Path 37338" transform="translate(-645.634 494.405)"/>
                    <path id="prefix__Path_37339" d="M672.964-482.572c0 4.991-2.671 8.2-6.7 8.2a5.441 5.441 0 0 1-5.051-2.809h-.076v7.954h-3.3V-490.6h3.19v2.671h.06a5.7 5.7 0 0 1 5.113-2.839c4.077-.001 6.764 3.221 6.764 8.196zm-3.387 0c0-3.251-1.681-5.388-4.244-5.388-2.518 0-4.212 2.183-4.212 5.388 0 3.237 1.694 5.4 4.212 5.4 2.567.002 4.244-2.119 4.244-5.4z" class="prefix__cls-2" data-name="Path 37339" transform="translate(-636.194 496.934)"/>
                    <path id="prefix__Path_37340" d="M682.929-482.572c0 4.991-2.671 8.2-6.7 8.2a5.441 5.441 0 0 1-5.051-2.809h-.078v7.954h-3.3V-490.6h3.191v2.671h.06a5.7 5.7 0 0 1 5.113-2.839c4.078-.001 6.765 3.221 6.765 8.196zm-3.389 0c0-3.251-1.68-5.388-4.242-5.388-2.518 0-4.212 2.183-4.212 5.388 0 3.237 1.694 5.4 4.212 5.4 2.563.002 4.242-2.119 4.242-5.4z" class="prefix__cls-2" data-name="Path 37340" transform="translate(-628.486 496.934)"/>
                    <path id="prefix__Path_37341" d="M684.388-477.991c.245 2.183 2.366 3.618 5.265 3.618 2.779 0 4.778-1.435 4.778-3.4 0-1.71-1.206-2.733-4.061-3.435l-2.853-.686c-4.044-.977-5.922-2.87-5.922-5.938 0-3.8 3.311-6.409 8.015-6.409 4.654 0 7.844 2.609 7.951 6.409h-3.327c-.2-2.2-2.015-3.524-4.671-3.524s-4.471 1.341-4.471 3.3c0 1.557 1.16 2.474 4 3.175l2.426.6c4.519 1.069 6.4 2.884 6.4 6.1 0 4.122-3.281 6.7-8.5 6.7-4.882 0-8.181-2.52-8.394-6.5z" class="prefix__cls-2" data-name="Path 37341" transform="translate(-618.267 494.245)"/>
                    <path id="prefix__Path_37342" d="M697.015-492.817v3.8h3.054v2.611h-3.054v8.852c0 1.374.612 2.016 1.954 2.016a10.609 10.609 0 0 0 1.084-.076v2.593a9.013 9.013 0 0 1-1.83.153c-3.251 0-4.519-1.22-4.519-4.334v-9.2h-2.334v-2.611h2.33v-3.8z" class="prefix__cls-2" data-name="Path 37342" transform="translate(-610.257 495.35)"/>
                    <path id="prefix__Path_37343" d="M697.272-482.559c0-5.051 2.976-8.225 7.615-8.225 4.655 0 7.617 3.175 7.617 8.225 0 5.067-2.946 8.227-7.617 8.227s-7.615-3.161-7.615-8.227zm11.874 0c0-3.465-1.587-5.51-4.258-5.51s-4.258 2.061-4.258 5.51c0 3.48 1.587 5.51 4.258 5.51s4.258-2.031 4.258-5.51z" class="prefix__cls-2" data-name="Path 37343" transform="translate(-605.692 496.921)"/>
                    <path id="prefix__Path_37344" d="M707.393-490.6h3.143v2.733h.076a3.833 3.833 0 0 1 3.863-2.9 4.99 4.99 0 0 1 1.13.124v3.082a4.6 4.6 0 0 0-1.481-.2c-2.121 0-3.435 1.435-3.435 3.694v9.524h-3.295z" class="prefix__cls-2" data-name="Path 37344" transform="translate(-597.864 496.934)"/>
                    <path id="prefix__Path_37345" d="M726.908-479.248c-.443 2.916-3.281 4.916-6.913 4.916-4.671 0-7.571-3.13-7.571-8.151 0-5.037 2.916-8.3 7.433-8.3 4.443 0 7.236 3.05 7.236 7.919v1.13h-11.342v.2c0 2.747 1.726 4.549 4.32 4.549a3.633 3.633 0 0 0 3.708-2.259zm-11.141-4.792h8.027a3.862 3.862 0 0 0-3.937-4.076 4.065 4.065 0 0 0-4.09 4.076z" class="prefix__cls-2" data-name="Path 37345" transform="translate(-593.972 496.921)"/>
                </g>
            </g>
        </g>
        <g id="prefix__Group_8111" data-name="Group 8111" transform="translate(674.469 -497.366)">
            <g id="prefix__Group_8110" data-name="Group 8110">
                <path id="prefix__Path_37346" d="M653.956-492.8v-4.641h-5.434v4.641h-1.644v-10.581h1.644v4.443h5.434v-4.443h1.635v10.581z" class="prefix__cls-2" data-name="Path 37346" transform="translate(-646.878 504.119)"/>
                <path id="prefix__Path_37347" d="M653.054-494.857c0-1.438 1.069-2.267 2.969-2.384l2.164-.126v-.688c0-.844-.557-1.319-1.635-1.319-.88 0-1.49.323-1.664.887h-1.527c.161-1.371 1.453-2.252 3.263-2.252 2 0 3.132 1 3.132 2.685v5.455h-1.518v-1.121h-.124a2.688 2.688 0 0 1-2.4 1.254 2.412 2.412 0 0 1-2.66-2.391zm1.027-7.8a.969.969 0 0 1 .981-.99.968.968 0 0 1 .976.99.962.962 0 0 1-.976.982.963.963 0 0 1-.981-.985zm4.106 7.121v-.667l-1.949.124c-1.1.073-1.6.447-1.6 1.151 0 .72.624 1.139 1.481 1.139a1.883 1.883 0 0 0 2.067-1.751zm-.975-7.121a.976.976 0 0 1 .982-.99.968.968 0 0 1 .975.99.962.962 0 0 1-.975.982.97.97 0 0 1-.983-.985z" class="prefix__cls-2" data-name="Path 37347" transform="translate(-642.101 503.914)"/>
                <path id="prefix__Path_37348" d="M658.225-501.855h1.516v1.284h.117a2.256 2.256 0 0 1 2.222-1.438 2.239 2.239 0 0 1 2.2 1.438h.124a2.6 2.6 0 0 1 2.428-1.438 2.375 2.375 0 0 1 2.552 2.641v5.5h-1.577v-5.088c0-1.078-.514-1.607-1.548-1.607a1.617 1.617 0 0 0-1.685 1.672v5.023h-1.548v-5.242a1.392 1.392 0 0 0-1.541-1.453 1.717 1.717 0 0 0-1.687 1.811v4.884h-1.575z" class="prefix__cls-2" data-name="Path 37348" transform="translate(-638.101 505.184)"/>
                <path id="prefix__Path_37349" d="M668.336-503.043v2.025h1.729v1.327h-1.729v4.107c0 .837.344 1.2 1.128 1.2a5.353 5.353 0 0 0 .6-.035v1.312a5.23 5.23 0 0 1-.857.08c-1.752 0-2.451-.615-2.451-2.157v-4.51h-1.266v-1.327h1.268v-2.025z" class="prefix__cls-2" data-name="Path 37349" transform="translate(-632.482 504.384)"/>
                <path id="prefix__Path_37350" d="M668.986-496.126c0-1.438 1.071-2.267 2.971-2.384l2.164-.126v-.688c0-.844-.559-1.319-1.635-1.319-.88 0-1.49.323-1.665.887h-1.525c.161-1.371 1.451-2.252 3.263-2.252 2 0 3.132 1 3.132 2.685v5.455h-1.518v-1.121h-.124a2.692 2.692 0 0 1-2.4 1.254 2.413 2.413 0 0 1-2.663-2.391zm5.134-.683v-.667l-1.951.124c-1.1.073-1.6.447-1.6 1.151 0 .72.622 1.139 1.481 1.139a1.883 1.883 0 0 0 2.07-1.747z" class="prefix__cls-2" data-name="Path 37350" transform="translate(-629.777 505.184)"/>
                <path id="prefix__Path_37351" d="M676.484-502.831a.97.97 0 0 1 1.02-.968.97.97 0 0 1 1.018.968.968.968 0 0 1-1.018.959.969.969 0 0 1-1.02-.959zm.234 2.361h1.57v7.986h-1.57z" class="prefix__cls-2" data-name="Path 37351" transform="translate(-623.978 503.799)"/>
            </g>
        </g>
    </g>
</svg>
