<svg xmlns="http://www.w3.org/2000/svg" width="212.224" height="70.94" viewBox="0 0 212.224 70.94">
    <defs>
        <style>
            .prefix__cls-2{fill:#fff}
        </style>
    </defs>
    <g id="prefix__Group_8421" data-name="Group 8421" transform="translate(-611.048 455.848)">
        <g id="prefix__Group_8126" data-name="Group 8126" transform="translate(611.048 -455.848)">
            <g id="prefix__Group_8121" data-name="Group 8121">
                <g id="prefix__Group_8120" data-name="Group 8120">
                    <path id="prefix__Path_37373" fill="#b6b6b6" d="M806.372-455.848H626.016c-.543 0-1.082.014-1.63.021a23.588 23.588 0 0 0-3.554.314 11.834 11.834 0 0 0-3.37 1.112 11.4 11.4 0 0 0-2.871 2.091 11.072 11.072 0 0 0-2.089 2.875 11.666 11.666 0 0 0-1.108 3.375 23.164 23.164 0 0 0-.319 3.551c-.016.545-.018 1.091-.027 1.633v40.993c.009.552.011 1.085.027 1.635a23.163 23.163 0 0 0 .319 3.551 11.67 11.67 0 0 0 1.108 3.379 11.01 11.01 0 0 0 2.089 2.862 11.148 11.148 0 0 0 2.871 2.091 11.9 11.9 0 0 0 3.37 1.117 23.6 23.6 0 0 0 3.554.314c.548.012 1.087.02 1.63.02h182.279c.541 0 1.094-.007 1.635-.02a23.263 23.263 0 0 0 3.547-.314 12.083 12.083 0 0 0 3.384-1.117 11.131 11.131 0 0 0 2.868-2.091 11.369 11.369 0 0 0 2.1-2.862 11.7 11.7 0 0 0 1.1-3.379 24.085 24.085 0 0 0 .33-3.551c.007-.55.007-1.084.007-1.635.012-.644.012-1.284.012-1.938v-37.118c0-.649 0-1.295-.012-1.937 0-.543 0-1.089-.007-1.633a24.086 24.086 0 0 0-.33-3.551 11.7 11.7 0 0 0-1.1-3.375 11.433 11.433 0 0 0-2.1-2.875 11.386 11.386 0 0 0-2.868-2.091 12.014 12.014 0 0 0-3.384-1.112 23.256 23.256 0 0 0-3.547-.314c-.541-.007-1.094-.018-1.635-.021h-1.923z" data-name="Path 37373" transform="translate(-611.048 455.848)"/>
                    <path id="prefix__Path_37374" d="M625.35-387.137c-.541 0-1.068-.007-1.6-.02a22.611 22.611 0 0 1-3.315-.289 10.4 10.4 0 0 1-2.939-.972 9.56 9.56 0 0 1-2.478-1.8 9.49 9.49 0 0 1-1.811-2.478 10.2 10.2 0 0 1-.963-2.939 21.983 21.983 0 0 1-.294-3.325c-.011-.374-.026-1.619-.026-1.619v-40.97s.016-1.226.026-1.586a21.691 21.691 0 0 1 .294-3.32 10.181 10.181 0 0 1 .963-2.949 9.527 9.527 0 0 1 1.8-2.478 9.864 9.864 0 0 1 2.487-1.814 10.329 10.329 0 0 1 2.933-.965 22.179 22.179 0 0 1 3.325-.291l1.6-.021h182.259l1.619.023a21.711 21.711 0 0 1 3.3.287 10.594 10.594 0 0 1 2.964.972 9.791 9.791 0 0 1 2.467 1.8 9.9 9.9 0 0 1 1.816 2.49 10.282 10.282 0 0 1 .949 2.924 23.217 23.217 0 0 1 .309 3.347v1.578c.014.665.014 1.3.014 1.937v37.115c0 .644 0 1.272-.014 1.906 0 .576 0 1.1-.005 1.649a22.77 22.77 0 0 1-.3 3.286 10.246 10.246 0 0 1-.958 2.962 9.758 9.758 0 0 1-1.8 2.458 9.576 9.576 0 0 1-2.481 1.813 10.36 10.36 0 0 1-2.958.975 22.37 22.37 0 0 1-3.316.289c-.518.013-1.062.02-1.591.02h-1.923z" data-name="Path 37374" transform="translate(-610.373 456.525)"/>
                </g>
            </g>
            <g id="prefix__Group_8125" data-name="Group 8125" transform="translate(17.685 15.465)">
                <g id="prefix__Group_8123" data-name="Group 8123">
                    <g id="prefix__Group_8122" data-name="Group 8122">
                        <path id="prefix__Path_37375" d="M647.263-430.652a8.783 8.783 0 0 1 4.18-7.365 8.986 8.986 0 0 0-7.078-3.825c-2.979-.312-5.867 1.782-7.383 1.782-1.548 0-3.884-1.752-6.4-1.7a9.433 9.433 0 0 0-7.933 4.838c-3.43 5.939-.871 14.667 2.414 19.466 1.644 2.352 3.566 4.976 6.079 4.884 2.46-.1 3.379-1.57 6.347-1.57 2.942 0 3.8 1.57 6.369 1.509 2.641-.043 4.3-2.36 5.89-4.733a19.435 19.435 0 0 0 2.692-5.484 8.484 8.484 0 0 1-5.177-7.802z" class="prefix__cls-2" data-name="Path 37375" transform="translate(-621.02 451.191)"/>
                        <path id="prefix__Path_37376" d="M635.609-440.937a8.646 8.646 0 0 0 1.976-6.191 8.8 8.8 0 0 0-5.689 2.944 8.224 8.224 0 0 0-2.027 5.961 7.274 7.274 0 0 0 5.74-2.714z" class="prefix__cls-2" data-name="Path 37376" transform="translate(-614.21 447.128)"/>
                    </g>
                </g>
                <g id="prefix__Group_8124" data-name="Group 8124" transform="translate(43.373 16.229)">
                    <path id="prefix__Path_37377" d="M659.442-421.7h-8.4l-2.016 5.954h-3.554l7.951-22.023h3.694l7.951 22.023h-3.616zm-7.527-2.745h6.654l-3.279-9.662h-.09z" class="prefix__cls-2" data-name="Path 37377" transform="translate(-645.476 438.137)"/>
                    <path id="prefix__Path_37378" d="M672.8-426.3c0 4.989-2.671 8.2-6.7 8.2a5.444 5.444 0 0 1-5.053-2.809h-.076v7.952h-3.3v-21.369h3.189v2.671h.062a5.693 5.693 0 0 1 5.111-2.839c4.085-.006 6.767 3.215 6.767 8.194zm-3.387 0c0-3.251-1.68-5.39-4.244-5.39-2.518 0-4.212 2.183-4.212 5.39 0 3.235 1.694 5.4 4.212 5.4 2.568 0 4.248-2.123 4.248-5.4z" class="prefix__cls-2" data-name="Path 37378" transform="translate(-636.036 440.666)"/>
                    <path id="prefix__Path_37379" d="M682.769-426.3c0 4.989-2.671 8.2-6.7 8.2a5.442 5.442 0 0 1-5.053-2.809h-.076v7.952h-3.3v-21.369h3.189v2.671h.062a5.693 5.693 0 0 1 5.111-2.839c4.081-.006 6.767 3.215 6.767 8.194zm-3.387 0c0-3.251-1.681-5.39-4.244-5.39-2.518 0-4.212 2.183-4.212 5.39 0 3.235 1.694 5.4 4.212 5.4 2.562 0 4.244-2.123 4.244-5.4z" class="prefix__cls-2" data-name="Path 37379" transform="translate(-628.328 440.666)"/>
                    <path id="prefix__Path_37380" d="M684.231-421.723c.243 2.183 2.366 3.618 5.266 3.618 2.777 0 4.776-1.435 4.776-3.4 0-1.71-1.206-2.733-4.06-3.434l-2.855-.688c-4.044-.977-5.92-2.868-5.92-5.938 0-3.8 3.311-6.409 8.013-6.409 4.654 0 7.844 2.611 7.952 6.409h-3.327c-.2-2.2-2.016-3.524-4.671-3.524s-4.473 1.343-4.473 3.3c0 1.557 1.162 2.474 4 3.175l2.426.6c4.519 1.069 6.4 2.884 6.4 6.106 0 4.12-3.283 6.7-8.5 6.7-4.884 0-8.181-2.52-8.4-6.5z" class="prefix__cls-2" data-name="Path 37380" transform="translate(-618.11 437.977)"/>
                    <path id="prefix__Path_37381" d="M696.858-436.548v3.8h3.052v2.611h-3.052v8.851c0 1.374.61 2.016 1.953 2.016a10.574 10.574 0 0 0 1.084-.076v2.595a9.018 9.018 0 0 1-1.83.153c-3.251 0-4.519-1.222-4.519-4.336v-9.2h-2.334v-2.611h2.334v-3.8z" class="prefix__cls-2" data-name="Path 37381" transform="translate(-610.1 439.082)"/>
                    <path id="prefix__Path_37382" d="M697.113-426.29c0-5.053 2.976-8.227 7.615-8.227 4.655 0 7.617 3.175 7.617 8.227s-2.946 8.225-7.617 8.225-7.615-3.16-7.615-8.225zm11.875 0c0-3.467-1.589-5.512-4.26-5.512s-4.256 2.061-4.256 5.512c0 3.478 1.585 5.508 4.256 5.508s4.26-2.03 4.26-5.508z" class="prefix__cls-2" data-name="Path 37382" transform="translate(-605.535 440.653)"/>
                    <path id="prefix__Path_37383" d="M707.234-434.333h3.144v2.733h.076a3.83 3.83 0 0 1 3.863-2.9 5.08 5.08 0 0 1 1.128.124v3.082a4.63 4.63 0 0 0-1.481-.2c-2.121 0-3.433 1.435-3.433 3.694v9.524h-3.3z" class="prefix__cls-2" data-name="Path 37383" transform="translate(-597.706 440.666)"/>
                    <path id="prefix__Path_37384" d="M726.75-422.979c-.443 2.914-3.283 4.914-6.915 4.914-4.671 0-7.569-3.128-7.569-8.149 0-5.037 2.914-8.3 7.431-8.3 4.443 0 7.236 3.052 7.236 7.92v1.128h-11.34v.2c0 2.747 1.724 4.547 4.318 4.547a3.633 3.633 0 0 0 3.708-2.258zm-11.143-4.792h8.029a3.862 3.862 0 0 0-3.939-4.075 4.065 4.065 0 0 0-4.09 4.075z" class="prefix__cls-2" data-name="Path 37384" transform="translate(-593.814 440.653)"/>
                </g>
            </g>
        </g>
        <g id="prefix__Group_8128" data-name="Group 8128" transform="translate(674.311 -441.098)">
            <g id="prefix__Group_8127" data-name="Group 8127">
                <path id="prefix__Path_37385" d="M653.8-436.535v-4.643h-5.434v4.643h-1.644v-10.582h1.644v4.444h5.434v-4.444h1.635v10.582z" class="prefix__cls-2" data-name="Path 37385" transform="translate(-646.719 447.851)"/>
                <path id="prefix__Path_37386" d="M660.077-439.756a3.242 3.242 0 0 1-3.46 2.311c-2.288 0-3.689-1.57-3.689-4.123s1.431-4.171 3.682-4.171c2.222 0 3.563 1.518 3.563 4.026v.55h-5.64v.089a2.113 2.113 0 0 0 2.128 2.288 1.915 1.915 0 0 0 1.9-.968zm-5.544-2.573h4.035a1.928 1.928 0 0 0-1.967-2.07 2.043 2.043 0 0 0-2.068 2.069z" class="prefix__cls-2" data-name="Path 37386" transform="translate(-641.916 448.916)"/>
                <path id="prefix__Path_37387" d="M658.207-445.586h1.516v1.268h.117a2.392 2.392 0 0 1 2.384-1.422c1.782 0 2.765 1.069 2.765 2.971v5.17h-1.577v-4.774c0-1.284-.557-1.922-1.724-1.922a1.832 1.832 0 0 0-1.906 2.024v4.673h-1.575z" class="prefix__cls-2" data-name="Path 37387" transform="translate(-637.833 448.916)"/>
                <path id="prefix__Path_37388" d="M665.85-446.774v2.024h1.729v1.328h-1.729v4.106c0 .837.344 1.2 1.13 1.2a5.341 5.341 0 0 0 .6-.035v1.312a5.214 5.214 0 0 1-.857.08c-1.752 0-2.451-.615-2.451-2.155v-4.51H663v-1.328h1.268v-2.024z" class="prefix__cls-2" data-name="Path 37388" transform="translate(-634.123 448.117)"/>
                <path id="prefix__Path_37389" d="M669.083-446.563a.973.973 0 0 1 1.021-.968.971.971 0 0 1 1.018.968.969.969 0 0 1-1.018.961.971.971 0 0 1-1.021-.961zm.236 2.362h1.569v7.986h-1.569z" class="prefix__cls-2" data-name="Path 37389" transform="translate(-629.42 447.531)"/>
            </g>
        </g>
    </g>
</svg>
