<svg xmlns="http://www.w3.org/2000/svg" width="239.422" height="70.94" viewBox="0 0 239.422 70.94">
    <defs>
        <linearGradient id="prefix__linear-gradient" x1=".915" x2="-.383" y1="64.478" y2="63.808" gradientUnits="objectBoundingBox">
            <stop offset="0" stop-color="#00a0ff"/>
            <stop offset=".007" stop-color="#00a1ff"/>
            <stop offset=".26" stop-color="#00beff"/>
            <stop offset=".512" stop-color="#00d2ff"/>
            <stop offset=".76" stop-color="#00dfff"/>
            <stop offset="1" stop-color="#00e3ff"/>
        </linearGradient>
        <linearGradient id="prefix__linear-gradient-2" x1="1.076" x2="-1.305" y1="186.686" y2="186.686" gradientUnits="objectBoundingBox">
            <stop offset="0" stop-color="#ffe000"/>
            <stop offset=".409" stop-color="#ffbd00"/>
            <stop offset=".775" stop-color="orange"/>
            <stop offset="1" stop-color="#ff9c00"/>
        </linearGradient>
        <linearGradient id="prefix__linear-gradient-3" x1=".862" x2="-.501" y1="123.66" y2="121.891" gradientUnits="objectBoundingBox">
            <stop offset="0" stop-color="#ff3a44"/>
            <stop offset="1" stop-color="#c31162"/>
        </linearGradient>
        <linearGradient id="prefix__linear-gradient-4" x1="-.188" x2=".421" y1="126.381" y2="125.59" gradientUnits="objectBoundingBox">
            <stop offset="0" stop-color="#32a071"/>
            <stop offset=".068" stop-color="#2da771"/>
            <stop offset=".476" stop-color="#15cf74"/>
            <stop offset=".801" stop-color="#06e775"/>
            <stop offset="1" stop-color="#00f076"/>
        </linearGradient>
        <style>
            .prefix__cls-10{fill:#fff}.prefix__cls-8{isolation:isolate;opacity:.12}.prefix__cls-10{stroke:#fff;stroke-miterlimit:10;stroke-width:.2px}
        </style>
    </defs>
    <g id="prefix__Group_8428" data-name="Group 8428" transform="translate(-755.005 275.384)">
        <g id="prefix__Group_8180" data-name="Group 8180" transform="translate(755.005 -275.384)">
            <g id="prefix__Group_8179" data-name="Group 8179">
                <path id="prefix__Path_37520" fill="#b6b6b6" d="M977.526-275.384H769.974c-.543 0-1.082.012-1.63.021a23.536 23.536 0 0 0-3.554.314 11.771 11.771 0 0 0-3.371 1.112 11.4 11.4 0 0 0-2.871 2.091 11.082 11.082 0 0 0-2.089 2.875 11.717 11.717 0 0 0-1.108 3.375 23.153 23.153 0 0 0-.317 3.551c-.016.544-.018 1.089-.027 1.633v40.993c.009.552.011 1.085.027 1.635a23.153 23.153 0 0 0 .317 3.551 11.693 11.693 0 0 0 1.108 3.377 11.028 11.028 0 0 0 2.089 2.864 11.1 11.1 0 0 0 2.871 2.089 11.84 11.84 0 0 0 3.371 1.119 24.008 24.008 0 0 0 3.554.314c.548.012 1.087.02 1.63.02h209.475c.541 0 1.1-.007 1.635-.02a23.707 23.707 0 0 0 3.547-.314 12.059 12.059 0 0 0 3.386-1.119 11.146 11.146 0 0 0 2.868-2.089 11.339 11.339 0 0 0 2.094-2.864 11.668 11.668 0 0 0 1.1-3.377 23.606 23.606 0 0 0 .33-3.551c.007-.55.007-1.084.007-1.635.014-.644.014-1.284.014-1.94v-37.116c0-.649 0-1.295-.014-1.937 0-.544 0-1.089-.007-1.633a23.606 23.606 0 0 0-.33-3.551 11.692 11.692 0 0 0-1.1-3.375 11.394 11.394 0 0 0-2.094-2.875 11.454 11.454 0 0 0-2.868-2.091 11.987 11.987 0 0 0-3.386-1.112 23.245 23.245 0 0 0-3.547-.314c-.539-.009-1.094-.018-1.635-.021h-1.923z" data-name="Path 37520" transform="translate(-755.005 275.384)"/>
                <path id="prefix__Path_37521" d="M769.307-206.673c-.541 0-1.068-.007-1.605-.02a22.617 22.617 0 0 1-3.315-.289 10.471 10.471 0 0 1-2.939-.972 9.6 9.6 0 0 1-2.478-1.8 9.438 9.438 0 0 1-1.809-2.476 10.15 10.15 0 0 1-.963-2.939 22.229 22.229 0 0 1-.3-3.325c-.011-.374-.025-1.619-.025-1.619v-40.97s.016-1.225.025-1.587a22.146 22.146 0 0 1 .294-3.32 10.24 10.24 0 0 1 .963-2.948 9.573 9.573 0 0 1 1.8-2.479 9.824 9.824 0 0 1 2.486-1.812 10.32 10.32 0 0 1 2.932-.965 22.2 22.2 0 0 1 3.327-.291l1.6-.021h209.466l1.619.021a21.958 21.958 0 0 1 3.295.289 10.5 10.5 0 0 1 2.964.972 9.789 9.789 0 0 1 2.469 1.8 9.9 9.9 0 0 1 1.814 2.492 10.156 10.156 0 0 1 .949 2.924 23.17 23.17 0 0 1 .309 3.347c.005.5.005 1.041.005 1.578.014.665.014 1.3.014 1.937v37.116c0 .646 0 1.273-.014 1.908 0 .576 0 1.1-.007 1.648a22.772 22.772 0 0 1-.3 3.288 10.142 10.142 0 0 1-.958 2.962 9.7 9.7 0 0 1-1.8 2.458 9.588 9.588 0 0 1-2.481 1.813 10.416 10.416 0 0 1-2.958.975 22.374 22.374 0 0 1-3.315.289c-.52.012-1.064.02-1.592.02h-1.923z" data-name="Path 37521" transform="translate(-754.33 276.061)"/>
            </g>
        </g>
        <g id="prefix__Group_8184" data-name="Group 8184" transform="translate(772.69 -263.09)">
            <path id="prefix__Path_37522" fill="#fff" d="M844.1-249.927a7.435 7.435 0 0 0-7.573 7.543 7.452 7.452 0 0 0 7.573 7.543 7.452 7.452 0 0 0 7.571-7.543 7.434 7.434 0 0 0-7.571-7.543zm0 12.115a4.365 4.365 0 0 1-4.258-4.572 4.347 4.347 0 0 1 4.258-4.572 4.347 4.347 0 0 1 4.256 4.572 4.365 4.365 0 0 1-4.256 4.572zm-16.518-12.115a7.434 7.434 0 0 0-7.571 7.543 7.452 7.452 0 0 0 7.571 7.543 7.452 7.452 0 0 0 7.571-7.543 7.434 7.434 0 0 0-7.572-7.543zm0 12.115a4.364 4.364 0 0 1-4.256-4.572 4.345 4.345 0 0 1 4.256-4.572 4.347 4.347 0 0 1 4.258 4.572 4.365 4.365 0 0 1-4.259 4.572zm-19.649-9.8v3.2h7.658a6.679 6.679 0 0 1-1.743 4.029 7.84 7.84 0 0 1-5.915 2.343 8.4 8.4 0 0 1-8.4-8.515 8.4 8.4 0 0 1 8.4-8.515 8.166 8.166 0 0 1 5.773 2.286l2.256-2.258a11.162 11.162 0 0 0-8.029-3.23 11.879 11.879 0 0 0-11.886 11.716 11.878 11.878 0 0 0 11.886 11.714 10.706 10.706 0 0 0 8.172-3.286 10.574 10.574 0 0 0 2.772-7.486 10.349 10.349 0 0 0-.172-2zm80.356 2.485a7.012 7.012 0 0 0-6.457-4.8 7.169 7.169 0 0 0-7.115 7.543 7.382 7.382 0 0 0 7.486 7.543 7.5 7.5 0 0 0 6.285-3.343l-2.572-1.713a4.308 4.308 0 0 1-3.714 2.086 3.837 3.837 0 0 1-3.657-2.286l10.086-4.171zM878-242.613a4.138 4.138 0 0 1 3.942-4.4 2.923 2.923 0 0 1 2.8 1.6zm-8.2 7.314h3.315v-22.171H869.8zm-5.429-12.943h-.113a5.232 5.232 0 0 0-3.973-1.685 7.5 7.5 0 0 0-7.229 7.571 7.471 7.471 0 0 0 7.229 7.514 5.143 5.143 0 0 0 3.973-1.715h.113v1.087c0 2.885-1.543 4.428-4.027 4.428a4.174 4.174 0 0 1-3.8-2.687l-2.886 1.2a7.186 7.186 0 0 0 6.686 4.457c3.886 0 7.17-2.286 7.17-7.857v-13.544h-3.143zm-3.8 10.43a4.33 4.33 0 0 1-4.2-4.544 4.364 4.364 0 0 1 4.2-4.6c2.256 0 4.028 1.944 4.028 4.6.001 2.629-1.77 4.544-4.026 4.544zm43.24-19.657h-7.931v22.169h3.309v-8.4h4.622a7.025 7.025 0 0 0 7.273-6.886 7.025 7.025 0 0 0-7.271-6.883zm.085 10.685h-4.707v-7.6h4.711a3.841 3.841 0 0 1 3.879 3.8 3.862 3.862 0 0 1-3.879 3.8zm20.45-3.183a6.212 6.212 0 0 0-5.9 3.395l2.939 1.225a3.138 3.138 0 0 1 3.024-1.626c1.711 0 3.451 1.027 3.48 2.854v.227a7.327 7.327 0 0 0-3.451-.855c-3.167 0-6.39 1.74-6.39 4.992 0 2.965 2.6 4.877 5.5 4.877a4.664 4.664 0 0 0 4.221-2.169h.115v1.711h3.194v-8.5c.002-3.936-2.936-6.131-6.73-6.131zm-.4 12.15c-1.084 0-2.595-.541-2.595-1.882 0-1.711 1.882-2.368 3.508-2.368a5.9 5.9 0 0 1 3.024.741 4.012 4.012 0 0 1-3.934 3.509zm18.769-11.666l-3.793 9.612h-.114l-3.937-9.612h-3.565l5.9 13.434-3.366 7.474h3.46l9.1-20.908zM912.911-235.3h3.309v-22.171h-3.309z" data-name="Path 37522" transform="translate(-740.945 276.327)"/>
            <g id="prefix__Group_8182" data-name="Group 8182" transform="translate(0 .487)">
                <path id="prefix__Path_37523" fill="url(#prefix__linear-gradient)" d="M765.8-267.724a3.551 3.551 0 0 0-.821 2.492v39.223a3.548 3.548 0 0 0 .821 2.492l.131.128 21.969-21.973v-.518l-21.972-21.972z" data-name="Path 37523" transform="translate(-764.977 268.429)"/>
                <path id="prefix__Path_37524" fill="url(#prefix__linear-gradient-2)" d="M785.226-244.422l-7.323-7.328v-.518l7.324-7.325.167.094 8.676 4.93c2.479 1.408 2.479 3.712 0 5.12l-8.676 4.932z" data-name="Path 37524" transform="translate(-754.979 274.818)"/>
                <path id="prefix__Path_37525" fill="url(#prefix__linear-gradient-3)" d="M795.034-247.826l-7.491-7.491-22.1 22.1c.818.865 2.165.972 3.685.108l25.909-14.72" data-name="Path 37525" transform="translate(-764.619 278.125)"/>
                <path id="prefix__Path_37526" fill="url(#prefix__linear-gradient-4)" d="M795.034-252.861l-25.909-14.72c-1.52-.864-2.868-.757-3.685.108l22.1 22.1z" data-name="Path 37526" transform="translate(-764.619 268.178)"/>
                <g id="prefix__Group_8181" data-name="Group 8181" transform="translate(0 30.134)">
                    <path id="prefix__Path_37527" d="M794.868-251.186l-25.743 14.626c-1.44.819-2.728.764-3.552.02l-.133.133.131.128c.825.745 2.112.8 3.552-.02l25.909-14.72z" data-name="Path 37527" transform="translate(-764.619 251.186)" style="isolation:isolate" opacity="0.2"/>
                    <path id="prefix__Path_37528" d="M765.8-241.914a3.543 3.543 0 0 1-.821-2.49v.259a3.551 3.551 0 0 0 .821 2.492l.133-.133z" class="prefix__cls-8" data-name="Path 37528" transform="translate(-764.977 256.432)"/>
                </g>
                <path id="prefix__Path_37529" d="M790.876-253.016l-8.843 5.024.167.165 8.676-4.93a3.112 3.112 0 0 0 1.86-2.559 3.3 3.3 0 0 1-1.86 2.3z" class="prefix__cls-8" data-name="Path 37529" transform="translate(-751.784 278.126)"/>
                <path id="prefix__Path_37530" fill="#fff" d="M769.484-267.322l34.585 19.65a3.3 3.3 0 0 1 1.86 2.3 3.114 3.114 0 0 0-1.86-2.561l-34.585-19.65c-2.478-1.408-4.507-.238-4.507 2.6v.259c0-2.835 2.029-4.006 4.507-2.598z" data-name="Path 37530" transform="translate(-764.977 268.178)" style="isolation:isolate" opacity="0.25"/>
            </g>
            <g id="prefix__Group_8183" data-name="Group 8183" transform="translate(55.525)">
                <path id="prefix__Path_37531" d="M796.285-257.677v-10.641h3.254a5.292 5.292 0 0 1 3.925 1.479 5.209 5.209 0 0 1 1.47 3.841 5.209 5.209 0 0 1-1.47 3.841 5.292 5.292 0 0 1-3.925 1.479zm1.366-1.307h1.889a3.99 3.99 0 0 0 2.919-1.055 3.947 3.947 0 0 0 1.078-2.961 3.948 3.948 0 0 0-1.078-2.949 3.98 3.98 0 0 0-2.919-1.064h-1.889z" class="prefix__cls-10" data-name="Path 37531" transform="translate(-796.285 268.556)"/>
                <path id="prefix__Path_37532" d="M802.244-257.677v-10.641h1.365v10.641z" class="prefix__cls-10" data-name="Path 37532" transform="translate(-791.676 268.556)"/>
                <path id="prefix__Path_37533" d="M807.7-257.336a3.966 3.966 0 0 1-2.267-.757 3.5 3.5 0 0 1-1.449-2.126l1.248-.5a2.849 2.849 0 0 0 .913 1.477 2.313 2.313 0 0 0 1.554.6 2.486 2.486 0 0 0 1.523-.468 1.5 1.5 0 0 0 .631-1.272 1.626 1.626 0 0 0-.631-1.374 6.563 6.563 0 0 0-2-.9 5.354 5.354 0 0 1-2.141-1.151 2.414 2.414 0 0 1-.729-1.807 2.638 2.638 0 0 1 .908-1.99 3.326 3.326 0 0 1 2.362-.848 3.416 3.416 0 0 1 2.2.676 3.14 3.14 0 0 1 1.1 1.479l-1.247.52a1.857 1.857 0 0 0-.662-.936 2.09 2.09 0 0 0-1.362-.429 2.1 2.1 0 0 0-1.343.438 1.337 1.337 0 0 0-.559 1.091 1.241 1.241 0 0 0 .513 1 4.933 4.933 0 0 0 1.509.736 12.569 12.569 0 0 1 1.316.491 6.082 6.082 0 0 1 1.07.631 2.5 2.5 0 0 1 .816.981 3.159 3.159 0 0 1 .277 1.36 2.933 2.933 0 0 1-.319 1.382 2.6 2.6 0 0 1-.848.967 4.189 4.189 0 0 1-1.137.541 4.26 4.26 0 0 1-1.246.188z" class="prefix__cls-10" data-name="Path 37533" transform="translate(-790.328 268.452)"/>
                <path id="prefix__Path_37534" d="M810.557-257.677h-1.367v-10.641h3.627a3.359 3.359 0 0 1 2.339.9 2.925 2.925 0 0 1 .99 2.267 2.925 2.925 0 0 1-.99 2.267 3.358 3.358 0 0 1-2.339.9h-2.259zm0-5.618h2.29a1.762 1.762 0 0 0 1.381-.578 1.876 1.876 0 0 0 .52-1.279 1.872 1.872 0 0 0-.52-1.277 1.759 1.759 0 0 0-1.381-.582h-2.29z" class="prefix__cls-10" data-name="Path 37534" transform="translate(-786.303 268.556)"/>
                <path id="prefix__Path_37535" d="M823.076-258.948a5.224 5.224 0 0 1-3.9 1.612 5.215 5.215 0 0 1-3.9-1.612 5.441 5.441 0 0 1-1.568-3.946 5.434 5.434 0 0 1 1.568-3.944 5.209 5.209 0 0 1 3.9-1.614 5.224 5.224 0 0 1 3.895 1.619 5.443 5.443 0 0 1 1.575 3.939 5.449 5.449 0 0 1-1.57 3.946zm-6.793-.892a3.9 3.9 0 0 0 2.891 1.2 3.907 3.907 0 0 0 2.891-1.2 4.165 4.165 0 0 0 1.183-3.054 4.168 4.168 0 0 0-1.183-3.054 3.905 3.905 0 0 0-2.891-1.2 3.9 3.9 0 0 0-2.891 1.2 4.174 4.174 0 0 0-1.181 3.054 4.171 4.171 0 0 0 1.182 3.054z" class="prefix__cls-10" data-name="Path 37535" transform="translate(-782.809 268.452)"/>
                <path id="prefix__Path_37536" d="M820.956-257.677v-10.641h1.664l5.172 8.279h.06l-.06-2.052v-6.227h1.369v10.641h-1.428l-5.411-8.678h-.059l.059 2.05v6.628z" class="prefix__cls-10" data-name="Path 37536" transform="translate(-777.202 268.556)"/>
                <path id="prefix__Path_37537" d="M826.956-257.677v-10.641h1.366v10.641z" class="prefix__cls-10" data-name="Path 37537" transform="translate(-772.561 268.556)"/>
                <path id="prefix__Path_37538" d="M829.1-257.677v-10.641h3.849a3.123 3.123 0 0 1 2.164.825 2.676 2.676 0 0 1 .915 2.073 2.32 2.32 0 0 1-.4 1.337 2.461 2.461 0 0 1-1.048.878v.058a2.713 2.713 0 0 1 1.295.922 2.421 2.421 0 0 1 .505 1.516 2.8 2.8 0 0 1-.959 2.169 3.281 3.281 0 0 1-2.268.862zm1.367-6.08h2.481a1.589 1.589 0 0 0 1.241-.513 1.627 1.627 0 0 0 .468-1.121 1.624 1.624 0 0 0-.454-1.114 1.526 1.526 0 0 0-1.2-.507h-2.542zm0 4.773h2.751a1.629 1.629 0 0 0 1.277-.552 1.762 1.762 0 0 0 .491-1.2 1.72 1.72 0 0 0-.505-1.2 1.732 1.732 0 0 0-1.325-.543h-2.689z" class="prefix__cls-10" data-name="Path 37538" transform="translate(-770.903 268.556)"/>
                <path id="prefix__Path_37539" d="M834.246-257.677v-10.641h1.366v9.334h4.608v1.307z" class="prefix__cls-10" data-name="Path 37539" transform="translate(-766.922 268.556)"/>
                <path id="prefix__Path_37540" d="M844.8-267.011h-4.847v3.375h4.37v1.279h-4.37v3.373h4.847v1.307h-6.213v-10.641h6.213z" class="prefix__cls-10" data-name="Path 37540" transform="translate(-763.564 268.556)"/>
                <path id="prefix__Path_37541" d="M851.52-267.011h-4.845v3.375h4.37v1.279h-4.37v3.373h4.845v1.307h-6.213v-10.641h6.213z" class="prefix__cls-10" data-name="Path 37541" transform="translate(-758.366 268.556)"/>
                <path id="prefix__Path_37542" d="M850.016-257.677v-10.641h1.665l5.171 8.279h.059l-.059-2.052v-6.227h1.367v10.641h-1.426l-5.411-8.678h-.058l.058 2.05v6.628z" class="prefix__cls-10" data-name="Path 37542" transform="translate(-754.724 268.556)"/>
            </g>
        </g>
    </g>
</svg>
