<svg xmlns="http://www.w3.org/2000/svg" width="239.422" height="70.94" viewBox="0 0 239.422 70.94">
    <defs>
        <linearGradient id="prefix__linear-gradient" x1=".915" x2="-.383" y1="73.957" y2="73.287" gradientUnits="objectBoundingBox">
            <stop offset="0" stop-color="#00a0ff"/>
            <stop offset=".007" stop-color="#00a1ff"/>
            <stop offset=".26" stop-color="#00beff"/>
            <stop offset=".512" stop-color="#00d2ff"/>
            <stop offset=".76" stop-color="#00dfff"/>
            <stop offset="1" stop-color="#00e3ff"/>
        </linearGradient>
        <linearGradient id="prefix__linear-gradient-2" x1="1.076" x2="-1.305" y1="214.474" y2="214.474" gradientUnits="objectBoundingBox">
            <stop offset="0" stop-color="#ffe000"/>
            <stop offset=".409" stop-color="#ffbd00"/>
            <stop offset=".775" stop-color="orange"/>
            <stop offset="1" stop-color="#ff9c00"/>
        </linearGradient>
        <linearGradient id="prefix__linear-gradient-3" x1=".862" x2="-.501" y1="142.147" y2="140.378" gradientUnits="objectBoundingBox">
            <stop offset="0" stop-color="#ff3a44"/>
            <stop offset="1" stop-color="#c31162"/>
        </linearGradient>
        <linearGradient id="prefix__linear-gradient-4" x1="-.188" x2=".421" y1="144.862" y2="144.072" gradientUnits="objectBoundingBox">
            <stop offset="0" stop-color="#32a071"/>
            <stop offset=".068" stop-color="#2da771"/>
            <stop offset=".476" stop-color="#15cf74"/>
            <stop offset=".801" stop-color="#06e775"/>
            <stop offset="1" stop-color="#00f076"/>
        </linearGradient>
        <style>
            .prefix__cls-10{fill:#fff}.prefix__cls-8{isolation:isolate;opacity:.12}.prefix__cls-10{stroke:#fff;stroke-miterlimit:10;stroke-width:.2px}
        </style>
    </defs>
    <g id="prefix__Group_8427" data-name="Group 8427" transform="translate(-755.005 394.236)">
        <g id="prefix__Group_8173" data-name="Group 8173" transform="translate(755.005 -394.236)">
            <g id="prefix__Group_8172" data-name="Group 8172">
                <path id="prefix__Path_37495" fill="#b6b6b6" d="M977.526-394.236H769.974c-.543 0-1.082.014-1.63.023a23.556 23.556 0 0 0-3.554.314 11.773 11.773 0 0 0-3.371 1.112 11.4 11.4 0 0 0-2.871 2.089 11.121 11.121 0 0 0-2.089 2.877 11.718 11.718 0 0 0-1.108 3.375 23.153 23.153 0 0 0-.317 3.551c-.016.543-.018 1.089-.027 1.633v40.993c.009.55.011 1.084.027 1.635a23.153 23.153 0 0 0 .317 3.551 11.693 11.693 0 0 0 1.108 3.377 10.99 10.99 0 0 0 2.089 2.862 11.106 11.106 0 0 0 2.871 2.091 11.843 11.843 0 0 0 3.371 1.119 24.024 24.024 0 0 0 3.554.314c.548.011 1.087.018 1.63.018h209.475c.541 0 1.1-.007 1.635-.018a23.723 23.723 0 0 0 3.547-.314 12.062 12.062 0 0 0 3.386-1.119 11.152 11.152 0 0 0 2.868-2.091 11.3 11.3 0 0 0 2.094-2.862 11.668 11.668 0 0 0 1.1-3.377 23.606 23.606 0 0 0 .33-3.551c.007-.552.007-1.085.007-1.635.014-.644.014-1.286.014-1.94v-37.118c0-.649 0-1.293-.014-1.935 0-.544 0-1.091-.007-1.633a23.606 23.606 0 0 0-.33-3.551 11.692 11.692 0 0 0-1.1-3.375 11.435 11.435 0 0 0-2.094-2.877 11.447 11.447 0 0 0-2.868-2.089 11.988 11.988 0 0 0-3.386-1.112 23.264 23.264 0 0 0-3.547-.314c-.539-.009-1.094-.02-1.635-.023h-1.923z" data-name="Path 37495" transform="translate(-755.005 394.236)"/>
                <path id="prefix__Path_37496" d="M769.307-325.525c-.541 0-1.068-.007-1.605-.018a22.619 22.619 0 0 1-3.315-.289 10.529 10.529 0 0 1-2.939-.972 9.639 9.639 0 0 1-2.478-1.8 9.438 9.438 0 0 1-1.809-2.476 10.144 10.144 0 0 1-.963-2.94 22.189 22.189 0 0 1-.3-3.325c-.011-.374-.025-1.619-.025-1.619v-40.968s.016-1.227.025-1.587a22.146 22.146 0 0 1 .294-3.32 10.222 10.222 0 0 1 .963-2.948 9.544 9.544 0 0 1 1.8-2.479 9.824 9.824 0 0 1 2.486-1.812 10.316 10.316 0 0 1 2.932-.965 22.2 22.2 0 0 1 3.327-.291l1.6-.023h209.466l1.619.023a21.959 21.959 0 0 1 3.295.289 10.444 10.444 0 0 1 2.964.972 9.787 9.787 0 0 1 2.469 1.8 9.89 9.89 0 0 1 1.814 2.49 10.192 10.192 0 0 1 .949 2.924 23.216 23.216 0 0 1 .309 3.348c.005.5.005 1.041.005 1.578.014.665.014 1.3.014 1.935v37.118c0 .644 0 1.273-.014 1.906 0 .578 0 1.1-.007 1.649a22.8 22.8 0 0 1-.3 3.288 10.142 10.142 0 0 1-.958 2.962 9.662 9.662 0 0 1-1.8 2.456 9.593 9.593 0 0 1-2.481 1.814 10.472 10.472 0 0 1-2.958.975 22.376 22.376 0 0 1-3.315.289c-.52.011-1.064.018-1.592.018h-1.923z" data-name="Path 37496" transform="translate(-754.33 394.913)"/>
            </g>
        </g>
        <g id="prefix__Group_8177" data-name="Group 8177" transform="translate(772.69 -383.845)">
            <path id="prefix__Path_37497" fill="#fff" d="M844.1-368.781a7.436 7.436 0 0 0-7.573 7.544 7.453 7.453 0 0 0 7.573 7.543 7.453 7.453 0 0 0 7.571-7.543 7.436 7.436 0 0 0-7.571-7.544zm0 12.115a4.364 4.364 0 0 1-4.258-4.57 4.347 4.347 0 0 1 4.258-4.572 4.347 4.347 0 0 1 4.256 4.572 4.363 4.363 0 0 1-4.256 4.57zm-16.518-12.115a7.436 7.436 0 0 0-7.571 7.544 7.453 7.453 0 0 0 7.571 7.543 7.453 7.453 0 0 0 7.571-7.543 7.436 7.436 0 0 0-7.572-7.544zm0 12.115a4.362 4.362 0 0 1-4.256-4.57 4.345 4.345 0 0 1 4.256-4.572 4.347 4.347 0 0 1 4.258 4.572 4.364 4.364 0 0 1-4.259 4.57zm-19.649-9.8v3.2h7.658a6.669 6.669 0 0 1-1.743 4.028 7.834 7.834 0 0 1-5.915 2.343 8.4 8.4 0 0 1-8.4-8.515 8.4 8.4 0 0 1 8.4-8.513 8.164 8.164 0 0 1 5.773 2.284l2.256-2.256a11.162 11.162 0 0 0-8.029-3.229 11.879 11.879 0 0 0-11.886 11.714 11.879 11.879 0 0 0 11.886 11.716 10.713 10.713 0 0 0 8.172-3.286 10.576 10.576 0 0 0 2.772-7.486 10.369 10.369 0 0 0-.172-2zm80.356 2.486a7.011 7.011 0 0 0-6.457-4.8 7.17 7.17 0 0 0-7.115 7.544 7.382 7.382 0 0 0 7.486 7.543 7.5 7.5 0 0 0 6.285-3.343l-2.572-1.715a4.3 4.3 0 0 1-3.714 2.086 3.837 3.837 0 0 1-3.657-2.286l10.086-4.171zM878-361.465a4.137 4.137 0 0 1 3.942-4.4 2.92 2.92 0 0 1 2.8 1.6zm-8.2 7.314h3.315v-22.172H869.8zm-5.429-12.943h-.113a5.233 5.233 0 0 0-3.973-1.687 7.5 7.5 0 0 0-7.229 7.573 7.471 7.471 0 0 0 7.229 7.514 5.143 5.143 0 0 0 3.973-1.715h.113v1.085c0 2.887-1.543 4.428-4.027 4.428a4.173 4.173 0 0 1-3.8-2.685l-2.886 1.2a7.189 7.189 0 0 0 6.686 4.457c3.886 0 7.17-2.286 7.17-7.857v-13.544h-3.143zm-3.8 10.428a4.329 4.329 0 0 1-4.2-4.542 4.363 4.363 0 0 1 4.2-4.6c2.256 0 4.028 1.942 4.028 4.6.001 2.629-1.77 4.542-4.026 4.542zm43.24-19.656h-7.931v22.17h3.309v-8.4h4.622a7.026 7.026 0 0 0 7.273-6.886 7.025 7.025 0 0 0-7.271-6.883zm.085 10.685h-4.707v-7.6h4.711a3.842 3.842 0 0 1 3.879 3.8 3.862 3.862 0 0 1-3.879 3.801zm20.45-3.185a6.215 6.215 0 0 0-5.9 3.394l2.939 1.227a3.135 3.135 0 0 1 3.024-1.626c1.711 0 3.451 1.027 3.48 2.852v.229a7.326 7.326 0 0 0-3.451-.855c-3.167 0-6.39 1.74-6.39 4.991 0 2.967 2.6 4.877 5.5 4.877a4.663 4.663 0 0 0 4.221-2.167h.115v1.711h3.194v-8.5c.002-3.935-2.936-6.132-6.73-6.132zm-.4 12.152c-1.084 0-2.595-.543-2.595-1.883 0-1.711 1.882-2.368 3.508-2.368a5.886 5.886 0 0 1 3.024.743 4.012 4.012 0 0 1-3.934 3.509zm18.769-11.666l-3.793 9.612h-.114l-3.937-9.612h-3.565l5.9 13.434-3.366 7.473h3.46l9.1-20.908zm-29.807 14.184h3.309v-22.17h-3.309z" data-name="Path 37497" transform="translate(-740.945 397.082)"/>
            <g id="prefix__Group_8175" data-name="Group 8175" transform="translate(0 2.39)">
                <path id="prefix__Path_37498" fill="url(#prefix__linear-gradient)" d="M765.8-386.576a3.551 3.551 0 0 0-.821 2.492v39.223a3.549 3.549 0 0 0 .821 2.492l.131.128 21.969-21.973v-.518L765.929-386.7z" data-name="Path 37498" transform="translate(-764.977 387.281)"/>
                <path id="prefix__Path_37499" fill="url(#prefix__linear-gradient-2)" d="M785.226-363.275L777.9-370.6v-.518l7.324-7.326.167.094 8.676 4.93c2.479 1.408 2.479 3.714 0 5.122l-8.676 4.93z" data-name="Path 37499" transform="translate(-754.979 393.669)"/>
                <path id="prefix__Path_37500" fill="url(#prefix__linear-gradient-3)" d="M795.034-366.678l-7.491-7.491-22.1 22.1c.818.864 2.165.972 3.685.108l25.909-14.72" data-name="Path 37500" transform="translate(-764.619 396.977)"/>
                <path id="prefix__Path_37501" fill="url(#prefix__linear-gradient-4)" d="M795.034-371.713l-25.909-14.722c-1.52-.862-2.868-.755-3.685.11l22.1 22.1z" data-name="Path 37501" transform="translate(-764.619 387.03)"/>
                <g id="prefix__Group_8174" data-name="Group 8174" transform="translate(0 30.135)">
                    <path id="prefix__Path_37502" d="M794.868-370.038l-25.742 14.626c-1.44.818-2.728.764-3.552.019l-.133.131.131.128c.825.745 2.112.8 3.552-.02l25.909-14.72z" data-name="Path 37502" transform="translate(-764.619 370.038)" style="isolation:isolate" opacity="0.2"/>
                    <path id="prefix__Path_37503" d="M765.8-360.765a3.552 3.552 0 0 1-.821-2.492v.257a3.548 3.548 0 0 0 .821 2.492l.133-.131z" class="prefix__cls-8" data-name="Path 37503" transform="translate(-764.977 375.283)"/>
                </g>
                <path id="prefix__Path_37504" d="M790.876-371.867l-8.843 5.024.167.165 8.676-4.93a3.114 3.114 0 0 0 1.86-2.561 3.306 3.306 0 0 1-1.86 2.302z" class="prefix__cls-8" data-name="Path 37504" transform="translate(-751.784 396.977)"/>
                <path id="prefix__Path_37505" fill="#fff" d="M769.484-386.174l34.585 19.65a3.3 3.3 0 0 1 1.86 2.3 3.114 3.114 0 0 0-1.86-2.561l-34.585-19.65c-2.478-1.408-4.507-.239-4.507 2.6v.259c0-2.835 2.029-4.006 4.507-2.598z" data-name="Path 37505" transform="translate(-764.977 387.03)" style="isolation:isolate" opacity="0.25"/>
            </g>
            <g id="prefix__Group_8176" data-name="Group 8176" transform="translate(55.457)">
                <path id="prefix__Path_37506" d="M800.589-376.529h-1.369v-9.334h-2.972v-1.307h7.312v1.307h-2.971z" class="prefix__cls-10" data-name="Path 37506" transform="translate(-796.247 389.311)"/>
                <path id="prefix__Path_37507" d="M801.343-376.529v-10.641h1.367v10.641z" class="prefix__cls-10" data-name="Path 37507" transform="translate(-792.305 389.311)"/>
                <path id="prefix__Path_37508" d="M803.488-376.529v-10.641h1.366v9.334h4.608v1.307z" class="prefix__cls-10" data-name="Path 37508" transform="translate(-790.646 389.311)"/>
                <path id="prefix__Path_37509" d="M818.169-381.315a4.8 4.8 0 0 1-1.321 3.552 5.16 5.16 0 0 1-3.909 1.575 5.347 5.347 0 0 1-3.916-1.6 5.347 5.347 0 0 1-1.614-3.96 5.35 5.35 0 0 1 1.614-3.962 5.353 5.353 0 0 1 3.916-1.6 5.506 5.506 0 0 1 2.183.445 4.4 4.4 0 0 1 1.665 1.188l-.936.936a3.6 3.6 0 0 0-2.912-1.259 4.048 4.048 0 0 0-2.907 1.181 4.074 4.074 0 0 0-1.225 3.07 4.07 4.07 0 0 0 1.225 3.068 4.04 4.04 0 0 0 2.907 1.181 4.029 4.029 0 0 0 2.971-1.188 3.347 3.347 0 0 0 .892-2.155h-3.863v-1.279h5.156a4.581 4.581 0 0 1 .074.807z" class="prefix__cls-10" data-name="Path 37509" transform="translate(-787.613 389.207)"/>
                <path id="prefix__Path_37510" d="M817.233-376.291a3.084 3.084 0 0 1-1.979-.647 3.488 3.488 0 0 1-1.158-1.82l1.249-.52a1.954 1.954 0 0 0 1.947 1.678 1.793 1.793 0 0 0 1.463-.615 2.543 2.543 0 0 0 .513-1.672v-7.282h1.367v7.252a3.592 3.592 0 0 1-.959 2.683 3.332 3.332 0 0 1-2.443.943z" class="prefix__cls-10" data-name="Path 37510" transform="translate(-782.441 389.311)"/>
                <path id="prefix__Path_37511" d="M825.27-385.863h-4.847v3.373h4.37v1.279h-4.37v3.375h4.847v1.307h-6.213v-10.641h6.213z" class="prefix__cls-10" data-name="Path 37511" transform="translate(-778.604 389.311)"/>
                <path id="prefix__Path_37512" d="M823.766-376.529v-10.641h1.665l5.171 8.277h.059l-.059-2.05v-6.227h1.367v10.641h-1.426l-5.411-8.679h-.058l.058 2.052v6.628z" class="prefix__cls-10" data-name="Path 37512" transform="translate(-774.961 389.311)"/>
                <path id="prefix__Path_37513" d="M840.148-381.315a4.8 4.8 0 0 1-1.321 3.552 5.16 5.16 0 0 1-3.909 1.575 5.347 5.347 0 0 1-3.916-1.6 5.346 5.346 0 0 1-1.614-3.96 5.35 5.35 0 0 1 1.612-3.96 5.352 5.352 0 0 1 3.916-1.6 5.507 5.507 0 0 1 2.183.445 4.4 4.4 0 0 1 1.665 1.188l-.937.936a3.6 3.6 0 0 0-2.909-1.261 4.048 4.048 0 0 0-2.907 1.181 4.073 4.073 0 0 0-1.225 3.07 4.069 4.069 0 0 0 1.225 3.068 4.04 4.04 0 0 0 2.907 1.181 4.029 4.029 0 0 0 2.971-1.188 3.348 3.348 0 0 0 .892-2.155h-3.863v-1.279h5.156a4.581 4.581 0 0 1 .074.807z" class="prefix__cls-10" data-name="Path 37513" transform="translate(-770.612 389.207)"/>
                <path id="prefix__Path_37514" d="M842.774-385.863h-4.845v3.373h4.37v1.279h-4.37v3.375h4.845v1.307h-6.213v-10.641h6.213z" class="prefix__cls-10" data-name="Path 37514" transform="translate(-765.064 389.311)"/>
                <path id="prefix__Path_37515" d="M841.271-376.529v-10.641h1.367v9.334h4.606v1.307z" class="prefix__cls-10" data-name="Path 37515" transform="translate(-761.421 389.311)"/>
                <path id="prefix__Path_37516" d="M845.611-376.529v-10.641h1.367v10.641z" class="prefix__cls-10" data-name="Path 37516" transform="translate(-758.064 389.311)"/>
                <path id="prefix__Path_37517" d="M858.138-381.315a4.8 4.8 0 0 1-1.321 3.552 5.16 5.16 0 0 1-3.909 1.575 5.35 5.35 0 0 1-3.916-1.6 5.345 5.345 0 0 1-1.612-3.96 5.349 5.349 0 0 1 1.612-3.962 5.355 5.355 0 0 1 3.916-1.6 5.494 5.494 0 0 1 2.183.445 4.4 4.4 0 0 1 1.665 1.188l-.937.936a3.594 3.594 0 0 0-2.911-1.259 4.048 4.048 0 0 0-2.908 1.184 4.073 4.073 0 0 0-1.225 3.07 4.069 4.069 0 0 0 1.225 3.068 4.04 4.04 0 0 0 2.907 1.181 4.036 4.036 0 0 0 2.972-1.188 3.347 3.347 0 0 0 .892-2.155h-3.865v-1.279h5.156a4.587 4.587 0 0 1 .076.804z" class="prefix__cls-10" data-name="Path 37517" transform="translate(-756.696 389.207)"/>
                <path id="prefix__Path_37518" d="M857.93-376.529h-1.367v-10.641h3.627a3.366 3.366 0 0 1 2.341.9 2.93 2.93 0 0 1 .988 2.266 2.926 2.926 0 0 1-.988 2.265 3.359 3.359 0 0 1-2.341.9h-2.26zm0-5.618h2.29a1.768 1.768 0 0 0 1.382-.578 1.88 1.88 0 0 0 .52-1.279 1.876 1.876 0 0 0-.52-1.279 1.764 1.764 0 0 0-1.382-.58h-2.29z" class="prefix__cls-10" data-name="Path 37518" transform="translate(-749.593 389.311)"/>
                <path id="prefix__Path_37519" d="M860.368-375.6l3.79-10.047a1.478 1.478 0 0 1-.55-1.188 1.488 1.488 0 0 1 .445-1.1 1.492 1.492 0 0 1 1.1-.447 1.488 1.488 0 0 1 1.092.454 1.492 1.492 0 0 1 .454 1.092 1.508 1.508 0 0 1-.55 1.188l3.788 10.047h-1.515l-1.025-2.884h-4.474l-1.041 2.884zm3.017-4.162h3.536l-1.738-4.8h-.059zm1.768-6.479a.571.571 0 0 0 .417-.179.569.569 0 0 0 .177-.415.57.57 0 0 0-.177-.417.571.571 0 0 0-.417-.179.567.567 0 0 0-.415.179.564.564 0 0 0-.179.417.589.589 0 0 0 .156.408.553.553 0 0 0 .38.186z" class="prefix__cls-10" data-name="Path 37519" transform="translate(-746.649 388.377)"/>
            </g>
        </g>
    </g>
</svg>
