<svg xmlns="http://www.w3.org/2000/svg" width="239.422" height="70.94" viewBox="0 0 239.422 70.94">
    <defs>
        <linearGradient id="prefix__linear-gradient" x1=".915" x2="-.383" y1="83.36" y2="82.691" gradientUnits="objectBoundingBox">
            <stop offset="0" stop-color="#00a0ff"/>
            <stop offset=".007" stop-color="#00a1ff"/>
            <stop offset=".26" stop-color="#00beff"/>
            <stop offset=".512" stop-color="#00d2ff"/>
            <stop offset=".76" stop-color="#00dfff"/>
            <stop offset="1" stop-color="#00e3ff"/>
        </linearGradient>
        <linearGradient id="prefix__linear-gradient-2" x1="1.076" x2="-1.305" y1="242.008" y2="242.008" gradientUnits="objectBoundingBox">
            <stop offset="0" stop-color="#ffe000"/>
            <stop offset=".409" stop-color="#ffbd00"/>
            <stop offset=".775" stop-color="orange"/>
            <stop offset="1" stop-color="#ff9c00"/>
        </linearGradient>
        <linearGradient id="prefix__linear-gradient-3" x1=".862" x2="-.501" y1="160.476" y2="158.707" gradientUnits="objectBoundingBox">
            <stop offset="0" stop-color="#ff3a44"/>
            <stop offset="1" stop-color="#c31162"/>
        </linearGradient>
        <linearGradient id="prefix__linear-gradient-4" x1="-.188" x2=".421" y1="163.196" y2="162.406" gradientUnits="objectBoundingBox">
            <stop offset="0" stop-color="#32a071"/>
            <stop offset=".068" stop-color="#2da771"/>
            <stop offset=".476" stop-color="#15cf74"/>
            <stop offset=".801" stop-color="#06e775"/>
            <stop offset="1" stop-color="#00f076"/>
        </linearGradient>
        <style>
            .prefix__cls-10{fill:#fff}.prefix__cls-8{isolation:isolate;opacity:.12}.prefix__cls-10{stroke:#fff;stroke-miterlimit:10;stroke-width:.2px}
        </style>
    </defs>
    <g id="prefix__Group_8420" data-name="Group 8420" transform="translate(-755.005 512.116)">
        <g id="prefix__Group_8114" data-name="Group 8114" transform="translate(755.005 -512.116)">
            <g id="prefix__Group_8113" data-name="Group 8113">
                <path id="prefix__Path_37352" fill="#b6b6b6" d="M977.526-512.116H769.974c-.543 0-1.082.013-1.63.021a23.517 23.517 0 0 0-3.554.314 11.77 11.77 0 0 0-3.371 1.112 11.4 11.4 0 0 0-2.871 2.091 11.082 11.082 0 0 0-2.089 2.875 11.716 11.716 0 0 0-1.108 3.375 23.153 23.153 0 0 0-.317 3.551c-.016.544-.018 1.089-.027 1.633v40.993c.009.552.01 1.084.027 1.635a23.152 23.152 0 0 0 .317 3.551 11.692 11.692 0 0 0 1.108 3.377 11.029 11.029 0 0 0 2.089 2.864 11.1 11.1 0 0 0 2.871 2.089 11.841 11.841 0 0 0 3.371 1.119 24.028 24.028 0 0 0 3.554.314c.548.012 1.087.019 1.63.019h209.475c.541 0 1.1-.007 1.635-.019a23.725 23.725 0 0 0 3.547-.314 12.062 12.062 0 0 0 3.386-1.119 11.146 11.146 0 0 0 2.868-2.089 11.339 11.339 0 0 0 2.094-2.864 11.667 11.667 0 0 0 1.1-3.377 23.629 23.629 0 0 0 .33-3.551c.007-.552.007-1.084.007-1.635.014-.644.014-1.284.014-1.94V-495.2c0-.651 0-1.295-.014-1.937 0-.544 0-1.089-.007-1.633a23.629 23.629 0 0 0-.33-3.551 11.69 11.69 0 0 0-1.1-3.375 11.394 11.394 0 0 0-2.094-2.875 11.452 11.452 0 0 0-2.868-2.091 11.987 11.987 0 0 0-3.386-1.112 23.223 23.223 0 0 0-3.547-.314c-.539-.009-1.094-.02-1.635-.021h-1.923z" data-name="Path 37352" transform="translate(-755.005 512.116)"/>
                <path id="prefix__Path_37353" d="M769.307-443.4c-.541 0-1.068-.007-1.605-.02a22.612 22.612 0 0 1-3.315-.289 10.467 10.467 0 0 1-2.939-.972 9.635 9.635 0 0 1-2.478-1.8 9.435 9.435 0 0 1-1.809-2.476 10.146 10.146 0 0 1-.963-2.939 22.228 22.228 0 0 1-.3-3.325c-.011-.374-.025-1.621-.025-1.621v-40.968s.016-1.225.025-1.587a22.145 22.145 0 0 1 .294-3.32 10.24 10.24 0 0 1 .963-2.948 9.572 9.572 0 0 1 1.8-2.479 9.824 9.824 0 0 1 2.486-1.813 10.318 10.318 0 0 1 2.932-.965 22.2 22.2 0 0 1 3.327-.291l1.6-.021h209.466l1.619.021a21.966 21.966 0 0 1 3.3.289 10.5 10.5 0 0 1 2.964.972 9.8 9.8 0 0 1 2.469 1.8 9.9 9.9 0 0 1 1.814 2.492 10.16 10.16 0 0 1 .949 2.924 23.187 23.187 0 0 1 .309 3.347c.005.5.005 1.041.005 1.578.014.665.014 1.3.014 1.937v37.116c0 .646 0 1.273-.014 1.908 0 .576 0 1.1-.007 1.647a22.789 22.789 0 0 1-.3 3.288 10.145 10.145 0 0 1-.958 2.962 9.664 9.664 0 0 1-1.8 2.456 9.6 9.6 0 0 1-2.481 1.814 10.419 10.419 0 0 1-2.958.975 22.367 22.367 0 0 1-3.315.289c-.52.012-1.064.02-1.593.02h-1.923z" data-name="Path 37353" transform="translate(-754.33 512.793)"/>
            </g>
        </g>
        <g id="prefix__Group_8118" data-name="Group 8118" transform="translate(772.69 -501.727)">
            <path id="prefix__Path_37354" fill="#fff" d="M844.1-486.66a7.435 7.435 0 0 0-7.573 7.543 7.452 7.452 0 0 0 7.573 7.543 7.452 7.452 0 0 0 7.571-7.543 7.434 7.434 0 0 0-7.571-7.543zm0 12.113a4.364 4.364 0 0 1-4.258-4.57 4.347 4.347 0 0 1 4.258-4.572 4.347 4.347 0 0 1 4.256 4.572 4.363 4.363 0 0 1-4.256 4.57zm-16.519-12.113a7.434 7.434 0 0 0-7.571 7.543 7.452 7.452 0 0 0 7.571 7.543 7.452 7.452 0 0 0 7.571-7.543 7.434 7.434 0 0 0-7.571-7.543zm0 12.113a4.362 4.362 0 0 1-4.256-4.57 4.345 4.345 0 0 1 4.256-4.572 4.347 4.347 0 0 1 4.258 4.572 4.364 4.364 0 0 1-4.258 4.57zm-19.649-9.8v3.2h7.658a6.678 6.678 0 0 1-1.743 4.029 7.84 7.84 0 0 1-5.915 2.343 8.4 8.4 0 0 1-8.4-8.515 8.4 8.4 0 0 1 8.4-8.515 8.165 8.165 0 0 1 5.773 2.286l2.256-2.258a11.162 11.162 0 0 0-8.029-3.23 11.879 11.879 0 0 0-11.886 11.716 11.878 11.878 0 0 0 11.886 11.714 10.706 10.706 0 0 0 8.172-3.286 10.574 10.574 0 0 0 2.772-7.486 10.336 10.336 0 0 0-.172-2zm80.355 2.485a7.013 7.013 0 0 0-6.457-4.8 7.168 7.168 0 0 0-7.115 7.543 7.382 7.382 0 0 0 7.486 7.543 7.5 7.5 0 0 0 6.285-3.343l-2.572-1.715a4.3 4.3 0 0 1-3.714 2.086 3.839 3.839 0 0 1-3.657-2.284L888.63-481zM878-479.346a4.138 4.138 0 0 1 3.942-4.4 2.92 2.92 0 0 1 2.8 1.6zm-8.2 7.314h3.315V-494.2H869.8zm-5.429-12.943h-.114a5.232 5.232 0 0 0-3.973-1.685 7.5 7.5 0 0 0-7.229 7.571 7.471 7.471 0 0 0 7.229 7.514 5.143 5.143 0 0 0 3.973-1.715h.114v1.087c0 2.885-1.543 4.428-4.028 4.428a4.175 4.175 0 0 1-3.8-2.687l-2.885 1.2a7.185 7.185 0 0 0 6.686 4.457c3.886 0 7.17-2.286 7.17-7.857V-486.2h-3.143zm-3.8 10.428a4.329 4.329 0 0 1-4.2-4.542 4.364 4.364 0 0 1 4.2-4.6c2.256 0 4.028 1.944 4.028 4.6.001 2.629-1.77 4.542-4.026 4.542zm43.24-19.656h-7.931v22.171h3.309v-8.4h4.622a7.026 7.026 0 0 0 7.273-6.887 7.025 7.025 0 0 0-7.271-6.881zm.085 10.685h-4.707v-7.6h4.711a3.841 3.841 0 0 1 3.879 3.8 3.862 3.862 0 0 1-3.879 3.801zm20.45-3.183a6.212 6.212 0 0 0-5.9 3.395l2.939 1.225a3.138 3.138 0 0 1 3.024-1.626c1.711 0 3.451 1.027 3.48 2.854v.227a7.326 7.326 0 0 0-3.451-.855c-3.168 0-6.39 1.74-6.39 4.991 0 2.967 2.6 4.879 5.5 4.879a4.664 4.664 0 0 0 4.221-2.169h.115v1.711h3.194v-8.5c.002-3.931-2.937-6.131-6.73-6.131zm-.4 12.15c-1.084 0-2.595-.541-2.595-1.882 0-1.711 1.882-2.368 3.508-2.368a5.9 5.9 0 0 1 3.024.741 4.012 4.012 0 0 1-3.934 3.51zm18.769-11.666l-3.794 9.612h-.114l-3.937-9.612h-3.565l5.9 13.434-3.366 7.473h3.461l9.1-20.908zm-29.807 14.184h3.309V-494.2h-3.309z" data-name="Path 37354" transform="translate(-740.945 514.963)"/>
            <g id="prefix__Group_8116" data-name="Group 8116" transform="translate(0 2.39)">
                <path id="prefix__Path_37355" fill="url(#prefix__linear-gradient)" d="M765.8-504.457a3.552 3.552 0 0 0-.821 2.492v39.223a3.548 3.548 0 0 0 .821 2.492l.131.128 21.969-21.973v-.518l-21.972-21.974z" data-name="Path 37355" transform="translate(-764.977 505.162)"/>
                <path id="prefix__Path_37356" fill="url(#prefix__linear-gradient-2)" d="M785.226-481.155l-7.323-7.328V-489l7.325-7.326.167.1 8.676 4.93c2.479 1.408 2.479 3.712 0 5.12l-8.676 4.93z" data-name="Path 37356" transform="translate(-754.979 511.55)"/>
                <path id="prefix__Path_37357" fill="url(#prefix__linear-gradient-3)" d="M795.034-484.559l-7.491-7.491-22.1 22.1c.818.865 2.165.972 3.685.108l25.909-14.72" data-name="Path 37357" transform="translate(-764.619 514.858)"/>
                <path id="prefix__Path_37358" fill="url(#prefix__linear-gradient-4)" d="M795.034-489.594l-25.909-14.72c-1.52-.864-2.868-.757-3.685.108l22.1 22.1z" data-name="Path 37358" transform="translate(-764.619 504.911)"/>
                <g id="prefix__Group_8115" data-name="Group 8115" transform="translate(0 30.134)">
                    <path id="prefix__Path_37359" d="M794.868-487.919l-25.742 14.626c-1.44.819-2.728.764-3.552.02l-.133.131.131.129c.825.745 2.112.8 3.552-.019l25.909-14.72z" data-name="Path 37359" transform="translate(-764.619 487.919)" style="isolation:isolate" opacity="0.2"/>
                    <path id="prefix__Path_37360" d="M765.8-478.646a3.548 3.548 0 0 1-.821-2.492v.261a3.544 3.544 0 0 0 .821 2.49l.133-.131z" class="prefix__cls-8" data-name="Path 37360" transform="translate(-764.977 493.164)"/>
                </g>
                <path id="prefix__Path_37361" d="M790.876-489.748l-8.843 5.024.167.165 8.676-4.93a3.112 3.112 0 0 0 1.86-2.561 3.3 3.3 0 0 1-1.86 2.302z" class="prefix__cls-8" data-name="Path 37361" transform="translate(-751.784 514.858)"/>
                <path id="prefix__Path_37362" fill="#fff" d="M769.483-504.055l34.585 19.65a3.3 3.3 0 0 1 1.86 2.3 3.114 3.114 0 0 0-1.86-2.561l-34.585-19.65c-2.478-1.408-4.507-.238-4.507 2.6v.261c.001-2.837 2.03-4.008 4.507-2.6z" data-name="Path 37362" transform="translate(-764.977 504.911)" style="isolation:isolate" opacity="0.25"/>
            </g>
            <g id="prefix__Group_8117" data-name="Group 8117" transform="translate(55.415)">
                <path id="prefix__Path_37363" d="M796.223-494.41v-10.641h1.367v9.334h4.61v1.307z" class="prefix__cls-10" data-name="Path 37363" transform="translate(-796.223 507.192)"/>
                <path id="prefix__Path_37364" d="M800.061-494.41l4.013-10.641h1.545l4.013 10.641h-1.516l-1.025-2.884h-4.473l-1.041 2.884zm3.017-4.162h3.538l-1.74-4.8h-.058z" class="prefix__cls-10" data-name="Path 37364" transform="translate(-793.254 507.192)"/>
                <path id="prefix__Path_37365" d="M806.329-494.41v-10.641h3.254a5.292 5.292 0 0 1 3.925 1.479 5.215 5.215 0 0 1 1.47 3.841 5.218 5.218 0 0 1-1.47 3.841 5.292 5.292 0 0 1-3.925 1.479zm1.366-1.307h1.889a3.99 3.99 0 0 0 2.919-1.055 3.947 3.947 0 0 0 1.078-2.958 3.954 3.954 0 0 0-1.078-2.951 3.987 3.987 0 0 0-2.919-1.062h-1.889z" class="prefix__cls-10" data-name="Path 37365" transform="translate(-788.406 507.192)"/>
                <path id="prefix__Path_37366" d="M812.287-494.41v-10.641h3.254a5.292 5.292 0 0 1 3.925 1.479 5.215 5.215 0 0 1 1.47 3.841 5.218 5.218 0 0 1-1.47 3.841 5.292 5.292 0 0 1-3.925 1.479zm1.366-1.307h1.889a3.99 3.99 0 0 0 2.919-1.055 3.947 3.947 0 0 0 1.078-2.958 3.955 3.955 0 0 0-1.078-2.951 3.987 3.987 0 0 0-2.919-1.062h-1.889z" class="prefix__cls-10" data-name="Path 37366" transform="translate(-783.798 507.192)"/>
                <path id="prefix__Path_37367" d="M817.491-494.41l4.013-10.641h1.545l4.012 10.641h-1.515l-1.025-2.884h-4.475l-1.041 2.884zm3.017-4.162h3.536l-1.738-4.8h-.059z" class="prefix__cls-10" data-name="Path 37367" transform="translate(-779.772 507.192)"/>
                <path id="prefix__Path_37368" d="M825.771-494.41v-10.641h1.665l5.171 8.279h.058l-.058-2.052v-6.227h1.367v10.641h-1.426l-5.411-8.68h-.058l.058 2.052v6.628z" class="prefix__cls-10" data-name="Path 37368" transform="translate(-773.368 507.192)"/>
                <path id="prefix__Path_37369" d="M837.983-503.744h-4.845v3.375h4.37v1.277h-4.37v3.375h4.845v1.307h-6.213v-10.641h6.213z" class="prefix__cls-10" data-name="Path 37369" transform="translate(-768.727 507.192)"/>
                <path id="prefix__Path_37370" d="M836.48-494.41v-10.641h3.254a5.292 5.292 0 0 1 3.925 1.479 5.209 5.209 0 0 1 1.47 3.841 5.212 5.212 0 0 1-1.47 3.841 5.292 5.292 0 0 1-3.925 1.479zm1.367-1.307h1.887a3.994 3.994 0 0 0 2.921-1.055 3.953 3.953 0 0 0 1.077-2.958 3.961 3.961 0 0 0-1.077-2.951 3.991 3.991 0 0 0-2.921-1.062h-1.887z" class="prefix__cls-10" data-name="Path 37370" transform="translate(-765.084 507.192)"/>
                <path id="prefix__Path_37371" d="M845.815-494.41h-1.366v-10.641h3.627a3.358 3.358 0 0 1 2.339.9 2.932 2.932 0 0 1 .99 2.267 2.931 2.931 0 0 1-.99 2.267 3.358 3.358 0 0 1-2.339.9h-2.261zm0-5.618h2.291a1.765 1.765 0 0 0 1.382-.578 1.876 1.876 0 0 0 .52-1.279 1.872 1.872 0 0 0-.52-1.277 1.762 1.762 0 0 0-1.382-.582h-2.291z" class="prefix__cls-10" data-name="Path 37371" transform="translate(-758.92 507.192)"/>
                <path id="prefix__Path_37372" d="M848.254-493.476l3.788-10.047a1.474 1.474 0 0 1-.548-1.188 1.489 1.489 0 0 1 .445-1.1 1.493 1.493 0 0 1 1.1-.447 1.488 1.488 0 0 1 1.092.454 1.493 1.493 0 0 1 .454 1.093 1.507 1.507 0 0 1-.551 1.188l3.79 10.047h-1.515l-1.025-2.884h-4.474l-1.041 2.884zm3.017-4.162h3.536l-1.738-4.8h-.06zm1.768-6.479a.564.564 0 0 0 .415-.179.562.562 0 0 0 .179-.415.564.564 0 0 0-.179-.417.563.563 0 0 0-.415-.177.565.565 0 0 0-.415.177.565.565 0 0 0-.179.417.588.588 0 0 0 .156.41.548.548 0 0 0 .38.184z" class="prefix__cls-10" data-name="Path 37372" transform="translate(-755.977 506.258)"/>
            </g>
        </g>
    </g>
</svg>
