<svg xmlns="http://www.w3.org/2000/svg" width="239.422" height="70.94" viewBox="0 0 239.422 70.94">
    <defs>
        <linearGradient id="prefix__linear-gradient" x1=".915" x2="-.383" y1="69.146" y2="68.476" gradientUnits="objectBoundingBox">
            <stop offset="0" stop-color="#00a0ff"/>
            <stop offset=".007" stop-color="#00a1ff"/>
            <stop offset=".26" stop-color="#00beff"/>
            <stop offset=".512" stop-color="#00d2ff"/>
            <stop offset=".76" stop-color="#00dfff"/>
            <stop offset="1" stop-color="#00e3ff"/>
        </linearGradient>
        <linearGradient id="prefix__linear-gradient-2" x1="1.076" x2="-1.305" y1="200.367" y2="200.367" gradientUnits="objectBoundingBox">
            <stop offset="0" stop-color="#ffe000"/>
            <stop offset=".409" stop-color="#ffbd00"/>
            <stop offset=".775" stop-color="orange"/>
            <stop offset="1" stop-color="#ff9c00"/>
        </linearGradient>
        <linearGradient id="prefix__linear-gradient-3" x1=".862" x2="-.501" y1="132.759" y2="130.989" gradientUnits="objectBoundingBox">
            <stop offset="0" stop-color="#ff3a44"/>
            <stop offset="1" stop-color="#c31162"/>
        </linearGradient>
        <linearGradient id="prefix__linear-gradient-4" x1="-.188" x2=".421" y1="135.484" y2="134.693" gradientUnits="objectBoundingBox">
            <stop offset="0" stop-color="#32a071"/>
            <stop offset=".068" stop-color="#2da771"/>
            <stop offset=".476" stop-color="#15cf74"/>
            <stop offset=".801" stop-color="#06e775"/>
            <stop offset="1" stop-color="#00f076"/>
        </linearGradient>
        <style>
            .prefix__cls-2{fill:#fff;stroke:#fff;stroke-miterlimit:10;stroke-width:.2px}.prefix__cls-9{isolation:isolate;opacity:.12}
        </style>
    </defs>
    <g id="prefix__Group_8425" data-name="Group 8425" transform="translate(-755.005 333.832)">
        <rect id="prefix__Rectangle_8170" width="239.422" height="70.94" data-name="Rectangle 8170" rx="9" transform="translate(755.005 -333.832)"/>
        <g id="prefix__Group_8161" data-name="Group 8161" transform="translate(755.005 -333.832)">
            <g id="prefix__Group_8160" data-name="Group 8160">
                <path id="prefix__Path_37463" fill="#a6a6a6" d="M985.559-332.413a7.457 7.457 0 0 1 7.449 7.449v53.2a7.458 7.458 0 0 1-7.449 7.45H763.872a7.458 7.458 0 0 1-7.449-7.45v-53.2a7.457 7.457 0 0 1 7.449-7.449h221.687m0-1.419H763.872a8.894 8.894 0 0 0-8.872 8.867v53.2a8.894 8.894 0 0 0 8.868 8.867h221.691a8.894 8.894 0 0 0 8.867-8.867v-53.2a8.894 8.894 0 0 0-8.867-8.867z" data-name="Path 37463" transform="translate(-755.005 333.832)"/>
            </g>
        </g>
        <g id="prefix__Group_8162" data-name="Group 8162" transform="translate(828.343 -321.655)">
            <path id="prefix__Path_37464" d="M807.115-320.977a4.8 4.8 0 0 1-1.321 3.552 5.157 5.157 0 0 1-3.909 1.575 5.355 5.355 0 0 1-3.916-1.6 5.352 5.352 0 0 1-1.612-3.962 5.345 5.345 0 0 1 1.612-3.96 5.35 5.35 0 0 1 3.916-1.6 5.494 5.494 0 0 1 2.183.445 4.4 4.4 0 0 1 1.665 1.19l-.936.936a3.589 3.589 0 0 0-2.912-1.263 4.04 4.04 0 0 0-2.907 1.181 4.069 4.069 0 0 0-1.225 3.068 4.073 4.073 0 0 0 1.225 3.07 4.048 4.048 0 0 0 2.907 1.181 4.036 4.036 0 0 0 2.972-1.188 3.353 3.353 0 0 0 .892-2.157h-3.864v-1.277h5.155a4.56 4.56 0 0 1 .075.809z" class="prefix__cls-2" data-name="Path 37464" transform="translate(-796.357 326.966)"/>
            <path id="prefix__Path_37465" d="M809.741-325.523H804.9v3.373h4.37v1.279h-4.37v3.373h4.845v1.307h-6.215v-10.641h6.211z" class="prefix__cls-2" data-name="Path 37465" transform="translate(-790.809 327.07)"/>
            <path id="prefix__Path_37466" d="M812.176-316.191h-1.367v-9.332h-2.972v-1.309h7.312v1.309h-2.972z" class="prefix__cls-2" data-name="Path 37466" transform="translate(-787.478 327.07)"/>
            <path id="prefix__Path_37467" d="M814.943-316.191v-10.641h1.366v10.641z" class="prefix__cls-2" data-name="Path 37467" transform="translate(-781.981 327.07)"/>
            <path id="prefix__Path_37468" d="M821.026-316.191h-1.367v-9.332h-2.972v-1.309H824v1.309h-2.972z" class="prefix__cls-2" data-name="Path 37468" transform="translate(-780.633 327.07)"/>
            <path id="prefix__Path_37469" d="M832.7-317.462a5.224 5.224 0 0 1-3.9 1.612 5.214 5.214 0 0 1-3.9-1.612 5.441 5.441 0 0 1-1.568-3.946 5.437 5.437 0 0 1 1.568-3.944 5.209 5.209 0 0 1 3.9-1.614 5.218 5.218 0 0 1 3.895 1.621 5.435 5.435 0 0 1 1.575 3.937 5.448 5.448 0 0 1-1.57 3.946zm-6.792-.892a3.9 3.9 0 0 0 2.891 1.2 3.907 3.907 0 0 0 2.891-1.2 4.165 4.165 0 0 0 1.183-3.054 4.168 4.168 0 0 0-1.183-3.054 3.906 3.906 0 0 0-2.891-1.2 3.9 3.9 0 0 0-2.891 1.2 4.173 4.173 0 0 0-1.181 3.054 4.171 4.171 0 0 0 1.181 3.054z" class="prefix__cls-2" data-name="Path 37469" transform="translate(-775.493 326.966)"/>
            <path id="prefix__Path_37470" d="M830.58-316.191v-10.641h1.664l5.171 8.279h.06l-.06-2.052v-6.227h1.369v10.641h-1.428l-5.411-8.678h-.058l.058 2.05v6.628z" class="prefix__cls-2" data-name="Path 37470" transform="translate(-769.886 327.07)"/>
        </g>
        <path id="prefix__Path_37471" fill="#fff" d="M844.1-308.441a7.435 7.435 0 0 0-7.573 7.543 7.452 7.452 0 0 0 7.573 7.543 7.452 7.452 0 0 0 7.571-7.543 7.434 7.434 0 0 0-7.571-7.543zm0 12.115a4.365 4.365 0 0 1-4.258-4.572 4.347 4.347 0 0 1 4.258-4.572 4.347 4.347 0 0 1 4.256 4.572 4.365 4.365 0 0 1-4.256 4.571zm-16.518-12.115a7.434 7.434 0 0 0-7.571 7.543 7.452 7.452 0 0 0 7.571 7.543 7.452 7.452 0 0 0 7.571-7.543 7.434 7.434 0 0 0-7.572-7.543zm0 12.115a4.364 4.364 0 0 1-4.256-4.572 4.346 4.346 0 0 1 4.256-4.572 4.347 4.347 0 0 1 4.258 4.572 4.365 4.365 0 0 1-4.259 4.571zm-19.649-9.8v3.2h7.658a6.679 6.679 0 0 1-1.743 4.029 7.84 7.84 0 0 1-5.915 2.343 8.4 8.4 0 0 1-8.4-8.515 8.4 8.4 0 0 1 8.4-8.515 8.166 8.166 0 0 1 5.767 2.284l2.256-2.258a11.161 11.161 0 0 0-8.029-3.228 11.878 11.878 0 0 0-11.886 11.714 11.878 11.878 0 0 0 11.886 11.714 10.706 10.706 0 0 0 8.172-3.286 10.572 10.572 0 0 0 2.772-7.484 10.355 10.355 0 0 0-.172-2zm80.355 2.485a7.012 7.012 0 0 0-6.457-4.8 7.169 7.169 0 0 0-7.115 7.543 7.382 7.382 0 0 0 7.486 7.543 7.5 7.5 0 0 0 6.285-3.343l-2.572-1.713a4.308 4.308 0 0 1-3.714 2.086 3.837 3.837 0 0 1-3.657-2.286l10.086-4.171zM878-301.128a4.138 4.138 0 0 1 3.942-4.4 2.923 2.923 0 0 1 2.8 1.6zm-8.2 7.314h3.315v-22.17H869.8zm-5.429-12.943h-.114a5.232 5.232 0 0 0-3.973-1.685 7.5 7.5 0 0 0-7.229 7.571 7.471 7.471 0 0 0 7.229 7.514 5.148 5.148 0 0 0 3.973-1.713h.114v1.085c0 2.886-1.543 4.428-4.028 4.428a4.174 4.174 0 0 1-3.8-2.687l-2.886 1.2a7.186 7.186 0 0 0 6.686 4.457c3.886 0 7.17-2.284 7.17-7.857v-13.542h-3.143zm-3.8 10.43a4.33 4.33 0 0 1-4.2-4.544 4.364 4.364 0 0 1 4.2-4.6c2.256 0 4.028 1.944 4.028 4.6.001 2.629-1.77 4.544-4.026 4.544zm43.239-19.657h-7.931v22.17h3.309v-8.4h4.622a7.025 7.025 0 0 0 7.273-6.886 7.025 7.025 0 0 0-7.271-6.884zm.09 10.684h-4.707v-7.6h4.707a3.841 3.841 0 0 1 3.879 3.8 3.862 3.862 0 0 1-3.879 3.8zm20.45-3.183a6.212 6.212 0 0 0-5.9 3.394l2.939 1.226a3.136 3.136 0 0 1 3.024-1.625c1.711 0 3.451 1.027 3.48 2.852v.229a7.323 7.323 0 0 0-3.451-.857c-3.167 0-6.39 1.74-6.39 4.992 0 2.965 2.6 4.877 5.5 4.877a4.667 4.667 0 0 0 4.221-2.167h.115v1.711h3.194v-8.5c-.002-3.936-2.941-6.131-6.734-6.131zm-.4 12.15c-1.084 0-2.595-.541-2.595-1.882 0-1.712 1.882-2.368 3.508-2.368a5.9 5.9 0 0 1 3.024.741 4.012 4.012 0 0 1-3.938 3.51zM942.717-308l-3.793 9.612h-.114L934.873-308h-3.565l5.9 13.434-3.366 7.474h3.458L946.4-308zm-29.807 14.186h3.309v-22.17h-3.309z" data-name="Path 37471" transform="translate(31.745 13.187)"/>
        <g id="prefix__Group_8164" data-name="Group 8164" transform="translate(772.69 -321.168)">
            <path id="prefix__Path_37472" fill="url(#prefix__linear-gradient)" d="M765.8-326.238a3.551 3.551 0 0 0-.821 2.492v39.223a3.548 3.548 0 0 0 .821 2.492l.131.128 21.969-21.973v-.518l-21.972-21.972z" data-name="Path 37472" transform="translate(-764.977 326.943)"/>
            <path id="prefix__Path_37473" fill="url(#prefix__linear-gradient-2)" d="M785.226-302.937l-7.323-7.328v-.518l7.325-7.325.167.094 8.676 4.93c2.479 1.408 2.479 3.712 0 5.122l-8.676 4.93z" data-name="Path 37473" transform="translate(-754.979 333.331)"/>
            <path id="prefix__Path_37474" fill="url(#prefix__linear-gradient-3)" d="M795.034-306.34l-7.491-7.491-22.1 22.1c.818.865 2.165.972 3.685.11l25.909-14.722" data-name="Path 37474" transform="translate(-764.619 336.639)"/>
            <path id="prefix__Path_37475" fill="url(#prefix__linear-gradient-4)" d="M795.034-311.375l-25.909-14.72c-1.52-.864-2.868-.755-3.685.108l22.1 22.1z" data-name="Path 37475" transform="translate(-764.619 326.692)"/>
            <g id="prefix__Group_8163" data-name="Group 8163" transform="translate(0 30.134)">
                <path id="prefix__Path_37476" d="M794.868-309.7l-25.742 14.626c-1.44.819-2.728.764-3.552.02l-.133.133.131.128c.825.745 2.112.8 3.552-.018l25.909-14.722z" data-name="Path 37476" transform="translate(-764.619 309.7)" style="isolation:isolate" opacity="0.2"/>
                <path id="prefix__Path_37477" d="M765.8-300.426a3.551 3.551 0 0 1-.821-2.492v.259a3.551 3.551 0 0 0 .821 2.492l.133-.133z" class="prefix__cls-9" data-name="Path 37477" transform="translate(-764.977 314.946)"/>
            </g>
            <path id="prefix__Path_37478" d="M790.876-311.53l-8.843 5.024.167.165 8.676-4.93a3.112 3.112 0 0 0 1.86-2.559 3.3 3.3 0 0 1-1.86 2.3z" class="prefix__cls-9" data-name="Path 37478" transform="translate(-751.784 336.64)"/>
            <path id="prefix__Path_37479" fill="#fff" d="M769.483-325.836l34.585 19.65a3.3 3.3 0 0 1 1.86 2.3 3.114 3.114 0 0 0-1.86-2.561l-34.585-19.65c-2.478-1.408-4.507-.238-4.507 2.6v.259c.001-2.835 2.03-4.006 4.507-2.598z" data-name="Path 37479" transform="translate(-764.977 326.691)" style="isolation:isolate" opacity="0.25"/>
        </g>
    </g>
</svg>
