<svg xmlns="http://www.w3.org/2000/svg" width="239.422" height="70.94" viewBox="0 0 239.422 70.94">
    <defs>
        <linearGradient id="prefix__linear-gradient" x1=".915" x2="-.383" y1="78.875" y2="78.205" gradientUnits="objectBoundingBox">
            <stop offset="0" stop-color="#00a0ff"/>
            <stop offset=".007" stop-color="#00a1ff"/>
            <stop offset=".26" stop-color="#00beff"/>
            <stop offset=".512" stop-color="#00d2ff"/>
            <stop offset=".76" stop-color="#00dfff"/>
            <stop offset="1" stop-color="#00e3ff"/>
        </linearGradient>
        <linearGradient id="prefix__linear-gradient-2" x1="1.076" x2="-1.305" y1="228.88" y2="228.88" gradientUnits="objectBoundingBox">
            <stop offset="0" stop-color="#ffe000"/>
            <stop offset=".409" stop-color="#ffbd00"/>
            <stop offset=".775" stop-color="orange"/>
            <stop offset="1" stop-color="#ff9c00"/>
        </linearGradient>
        <linearGradient id="prefix__linear-gradient-3" x1=".862" x2="-.501" y1="151.724" y2="149.954" gradientUnits="objectBoundingBox">
            <stop offset="0" stop-color="#ff3a44"/>
            <stop offset="1" stop-color="#c31162"/>
        </linearGradient>
        <linearGradient id="prefix__linear-gradient-4" x1="-.188" x2=".421" y1="154.45" y2="153.659" gradientUnits="objectBoundingBox">
            <stop offset="0" stop-color="#32a071"/>
            <stop offset=".068" stop-color="#2da771"/>
            <stop offset=".476" stop-color="#15cf74"/>
            <stop offset=".801" stop-color="#06e775"/>
            <stop offset="1" stop-color="#00f076"/>
        </linearGradient>
        <style>
            .prefix__cls-10{fill:#fff}.prefix__cls-8{isolation:isolate;opacity:.12}.prefix__cls-10{stroke:#fff;stroke-miterlimit:10;stroke-width:.2px}
        </style>
    </defs>
    <g id="prefix__Group_8426" data-name="Group 8426" transform="translate(-755.005 455.848)">
        <g id="prefix__Group_8167" data-name="Group 8167" transform="translate(755.005 -455.848)">
            <g id="prefix__Group_8166" data-name="Group 8166">
                <path id="prefix__Path_37480" fill="#b6b6b6" d="M977.526-455.848H769.974c-.543 0-1.082.014-1.63.021a23.548 23.548 0 0 0-3.554.314 11.827 11.827 0 0 0-3.371 1.112 11.4 11.4 0 0 0-2.871 2.091 11.111 11.111 0 0 0-2.089 2.875 11.718 11.718 0 0 0-1.108 3.375 23.154 23.154 0 0 0-.317 3.551c-.016.545-.018 1.091-.027 1.633v40.993c.009.552.011 1.085.027 1.635a23.153 23.153 0 0 0 .317 3.551 11.722 11.722 0 0 0 1.108 3.379 11.049 11.049 0 0 0 2.089 2.862 11.148 11.148 0 0 0 2.871 2.091 11.894 11.894 0 0 0 3.371 1.117 23.556 23.556 0 0 0 3.554.314c.548.012 1.087.02 1.63.02h209.475c.541 0 1.1-.007 1.635-.02a23.264 23.264 0 0 0 3.547-.314 12.114 12.114 0 0 0 3.386-1.117 11.194 11.194 0 0 0 2.868-2.091 11.361 11.361 0 0 0 2.094-2.862 11.7 11.7 0 0 0 1.1-3.379 23.606 23.606 0 0 0 .33-3.551c.007-.55.007-1.084.007-1.635.014-.644.014-1.284.014-1.938v-37.118c0-.649 0-1.295-.014-1.937 0-.543 0-1.089-.007-1.633a23.607 23.607 0 0 0-.33-3.551 11.693 11.693 0 0 0-1.1-3.375 11.425 11.425 0 0 0-2.094-2.875 11.452 11.452 0 0 0-2.868-2.091 12.045 12.045 0 0 0-3.386-1.112 23.256 23.256 0 0 0-3.547-.314c-.539-.007-1.094-.018-1.635-.021h-1.923z" data-name="Path 37480" transform="translate(-755.005 455.848)"/>
                <path id="prefix__Path_37481" d="M769.307-387.137c-.541 0-1.068-.007-1.605-.02a22.61 22.61 0 0 1-3.315-.289 10.413 10.413 0 0 1-2.939-.972 9.591 9.591 0 0 1-2.478-1.8 9.446 9.446 0 0 1-1.809-2.478 10.15 10.15 0 0 1-.963-2.939 22.228 22.228 0 0 1-.3-3.325c-.011-.374-.025-1.619-.025-1.619v-40.97s.016-1.226.025-1.586a22.147 22.147 0 0 1 .294-3.32 10.235 10.235 0 0 1 .963-2.949 9.534 9.534 0 0 1 1.8-2.478 9.832 9.832 0 0 1 2.486-1.814 10.318 10.318 0 0 1 2.932-.965 22.2 22.2 0 0 1 3.327-.291l1.6-.021h209.466l1.619.023a21.707 21.707 0 0 1 3.295.287 10.557 10.557 0 0 1 2.964.972 9.8 9.8 0 0 1 2.469 1.8 9.891 9.891 0 0 1 1.814 2.49 10.174 10.174 0 0 1 .949 2.924 23.217 23.217 0 0 1 .309 3.347c.005.5.005 1.041.005 1.578.014.665.014 1.3.014 1.937v37.115c0 .644 0 1.272-.014 1.906 0 .576 0 1.1-.007 1.649a22.77 22.77 0 0 1-.3 3.286 10.141 10.141 0 0 1-.958 2.962 9.671 9.671 0 0 1-1.8 2.458 9.546 9.546 0 0 1-2.481 1.813 10.361 10.361 0 0 1-2.958.975 22.367 22.367 0 0 1-3.315.289c-.52.013-1.064.02-1.592.02h-1.923z" data-name="Path 37481" transform="translate(-754.33 456.525)"/>
            </g>
        </g>
        <g id="prefix__Group_8170" data-name="Group 8170" transform="translate(772.69 -445.459)">
            <path id="prefix__Path_37482" fill="#fff" d="M844.1-430.392a7.435 7.435 0 0 0-7.573 7.543 7.452 7.452 0 0 0 7.573 7.543 7.452 7.452 0 0 0 7.571-7.543 7.434 7.434 0 0 0-7.571-7.543zm0 12.115a4.365 4.365 0 0 1-4.258-4.572 4.347 4.347 0 0 1 4.258-4.572 4.347 4.347 0 0 1 4.256 4.572 4.365 4.365 0 0 1-4.256 4.571zm-16.518-12.115a7.434 7.434 0 0 0-7.571 7.543 7.452 7.452 0 0 0 7.571 7.543 7.452 7.452 0 0 0 7.571-7.543 7.434 7.434 0 0 0-7.572-7.543zm0 12.115a4.364 4.364 0 0 1-4.256-4.572 4.345 4.345 0 0 1 4.256-4.572 4.347 4.347 0 0 1 4.258 4.572 4.365 4.365 0 0 1-4.259 4.571zm-19.649-9.8v3.2h7.658a6.679 6.679 0 0 1-1.743 4.029 7.84 7.84 0 0 1-5.915 2.343 8.4 8.4 0 0 1-8.4-8.515 8.4 8.4 0 0 1 8.4-8.515 8.165 8.165 0 0 1 5.773 2.286l2.256-2.258a11.161 11.161 0 0 0-8.029-3.228 11.878 11.878 0 0 0-11.886 11.714 11.878 11.878 0 0 0 11.886 11.714 10.707 10.707 0 0 0 8.172-3.286 10.572 10.572 0 0 0 2.772-7.484 10.356 10.356 0 0 0-.172-2zm80.356 2.485a7.012 7.012 0 0 0-6.457-4.8 7.169 7.169 0 0 0-7.115 7.543 7.382 7.382 0 0 0 7.486 7.543 7.5 7.5 0 0 0 6.285-3.343l-2.572-1.713a4.308 4.308 0 0 1-3.714 2.086 3.837 3.837 0 0 1-3.657-2.286l10.086-4.171zM878-423.079a4.138 4.138 0 0 1 3.942-4.4 2.923 2.923 0 0 1 2.8 1.6zm-8.2 7.314h3.315v-22.171H869.8zm-5.429-12.943h-.113a5.232 5.232 0 0 0-3.973-1.685 7.5 7.5 0 0 0-7.229 7.571 7.471 7.471 0 0 0 7.229 7.514 5.148 5.148 0 0 0 3.973-1.713h.113v1.085c0 2.885-1.543 4.428-4.027 4.428a4.174 4.174 0 0 1-3.8-2.687l-2.886 1.2a7.186 7.186 0 0 0 6.686 4.457c3.886 0 7.17-2.284 7.17-7.857v-13.542h-3.143zm-3.8 10.43a4.33 4.33 0 0 1-4.2-4.544 4.364 4.364 0 0 1 4.2-4.6c2.256 0 4.028 1.944 4.028 4.6.001 2.629-1.77 4.544-4.026 4.544zm43.24-19.657h-7.931v22.171h3.309v-8.4h4.622a7.025 7.025 0 0 0 7.273-6.886 7.025 7.025 0 0 0-7.271-6.885zm.085 10.685h-4.707v-7.6h4.711a3.841 3.841 0 0 1 3.879 3.8 3.862 3.862 0 0 1-3.879 3.8zm20.45-3.183a6.212 6.212 0 0 0-5.9 3.394l2.939 1.225a3.136 3.136 0 0 1 3.024-1.624c1.711 0 3.451 1.027 3.48 2.852v.229a7.324 7.324 0 0 0-3.451-.857c-3.167 0-6.39 1.74-6.39 4.992 0 2.965 2.6 4.877 5.5 4.877a4.667 4.667 0 0 0 4.221-2.167h.115v1.711h3.194v-8.5c.002-3.937-2.936-6.132-6.73-6.132zm-.4 12.15c-1.084 0-2.595-.541-2.595-1.882 0-1.711 1.882-2.368 3.508-2.368a5.9 5.9 0 0 1 3.024.741 4.012 4.012 0 0 1-3.934 3.509zm18.769-11.666l-3.793 9.612h-.114l-3.937-9.612h-3.565l5.9 13.434-3.366 7.473h3.46l9.1-20.908zm-29.807 14.184h3.309v-22.171h-3.309z" data-name="Path 37482" transform="translate(-740.945 458.696)"/>
            <g id="prefix__Group_8169" data-name="Group 8169" transform="translate(0 2.39)">
                <path id="prefix__Path_37483" fill="url(#prefix__linear-gradient)" d="M765.8-448.189a3.551 3.551 0 0 0-.821 2.492v39.223a3.548 3.548 0 0 0 .821 2.492l.131.128 21.969-21.973v-.518l-21.972-21.972z" data-name="Path 37483" transform="translate(-764.977 448.894)"/>
                <path id="prefix__Path_37484" fill="url(#prefix__linear-gradient-2)" d="M785.226-424.887l-7.323-7.328v-.518l7.324-7.325.167.094 8.676 4.93c2.479 1.408 2.479 3.712 0 5.122l-8.676 4.93z" data-name="Path 37484" transform="translate(-754.979 455.283)"/>
                <path id="prefix__Path_37485" fill="url(#prefix__linear-gradient-3)" d="M795.034-428.291l-7.491-7.491-22.1 22.1c.818.865 2.165.972 3.685.11l25.909-14.722" data-name="Path 37485" transform="translate(-764.619 458.59)"/>
                <path id="prefix__Path_37486" fill="url(#prefix__linear-gradient-4)" d="M795.034-433.326l-25.909-14.72c-1.52-.864-2.868-.755-3.685.108l22.1 22.1z" data-name="Path 37486" transform="translate(-764.619 448.643)"/>
                <g id="prefix__Group_8168" data-name="Group 8168" transform="translate(0 30.134)">
                    <path id="prefix__Path_37487" d="M794.868-431.651l-25.742 14.626c-1.44.819-2.728.764-3.552.02l-.133.133.131.128c.825.745 2.112.8 3.552-.018l25.909-14.722z" data-name="Path 37487" transform="translate(-764.619 431.651)" style="isolation:isolate" opacity="0.2"/>
                    <path id="prefix__Path_37488" d="M765.8-422.377a3.551 3.551 0 0 1-.821-2.492v.259a3.551 3.551 0 0 0 .821 2.492l.133-.133z" class="prefix__cls-8" data-name="Path 37488" transform="translate(-764.977 436.897)"/>
                </g>
                <path id="prefix__Path_37489" d="M790.876-433.481l-8.843 5.024.167.165 8.676-4.93a3.112 3.112 0 0 0 1.86-2.559 3.3 3.3 0 0 1-1.86 2.3z" class="prefix__cls-8" data-name="Path 37489" transform="translate(-751.784 458.591)"/>
                <path id="prefix__Path_37490" fill="#fff" d="M769.484-447.787l34.585 19.65a3.3 3.3 0 0 1 1.86 2.3 3.114 3.114 0 0 0-1.86-2.561l-34.585-19.65c-2.478-1.408-4.507-.238-4.507 2.6v.259c0-2.835 2.029-4.006 4.507-2.598z" data-name="Path 37490" transform="translate(-764.977 448.642)" style="isolation:isolate" opacity="0.25"/>
            </g>
            <path id="prefix__Path_37491" d="M796.233-438.142v-10.641h1.667l5.171 8.279h.059l-.059-2.052v-6.227h1.369v10.641h-1.43l-5.41-8.678h-.059l.059 2.05v6.628z" class="prefix__cls-10" data-name="Path 37491" transform="translate(-740.801 450.924)"/>
            <path id="prefix__Path_37492" d="M806.038-437.9a3.737 3.737 0 0 1-2.848-1.158 4.247 4.247 0 0 1-1.09-3.042v-6.688h1.366v6.748a3.049 3.049 0 0 0 .661 2.043 2.367 2.367 0 0 0 1.912.78 2.364 2.364 0 0 0 1.908-.78 3.049 3.049 0 0 0 .661-2.043v-6.748h1.367v6.688a4.308 4.308 0 0 1-1.062 3.04 3.724 3.724 0 0 1-2.875 1.16z" class="prefix__cls-10" data-name="Path 37492" transform="translate(-736.263 450.924)"/>
            <path id="prefix__Path_37493" d="M811.158-438.142h-1.367v-10.641h3.627a3.366 3.366 0 0 1 2.341.9 2.93 2.93 0 0 1 .988 2.267 2.93 2.93 0 0 1-.988 2.266 3.365 3.365 0 0 1-2.341.9h-2.259zm0-5.618h2.29a1.762 1.762 0 0 0 1.382-.578 1.876 1.876 0 0 0 .52-1.279 1.872 1.872 0 0 0-.52-1.277 1.758 1.758 0 0 0-1.382-.58h-2.29z" class="prefix__cls-10" data-name="Path 37493" transform="translate(-730.313 450.924)"/>
            <path id="prefix__Path_37494" d="M813.6-437.208l3.79-10.047a1.476 1.476 0 0 1-.55-1.188 1.488 1.488 0 0 1 .445-1.1 1.493 1.493 0 0 1 1.1-.447 1.492 1.492 0 0 1 1.092.454 1.492 1.492 0 0 1 .454 1.092 1.5 1.5 0 0 1-.55 1.188l3.788 10.047h-1.519l-1.025-2.884h-4.475l-1.041 2.884zm3.017-4.161h3.536l-1.738-4.8h-.058zm1.768-6.48a.569.569 0 0 0 .417-.177.575.575 0 0 0 .177-.417.569.569 0 0 0-.177-.417.576.576 0 0 0-.417-.177.572.572 0 0 0-.415.177.564.564 0 0 0-.179.417.6.6 0 0 0 .156.41.551.551 0 0 0 .38.184z" class="prefix__cls-10" data-name="Path 37494" transform="translate(-727.371 449.99)"/>
        </g>
    </g>
</svg>
