<svg xmlns="http://www.w3.org/2000/svg" width="177.711" height="36.557" viewBox="0 0 177.711 36.557">
    <defs>
        <style>
            .cls-1{fill:#41b99c}.cls-2{fill:#57a9d8}.cls-3{fill:#1c91dd}.cls-4{fill:#3868cc}.cls-5{fill:#6bc945}.cls-6{fill:#22ad5c}
        </style>
    </defs>
    <g id="Group_3061" data-name="Group 3061">
        <g id="Group_3062" data-name="Group 3062" transform="translate(69.839)">
            <path id="Path_2742" d="M837.344-356.719a3.691 3.691 0 0 0 3.676-3.676 3.691 3.691 0 0 0-3.676-3.676h-23.3a3.691 3.691 0 0 0-3.676 3.676 3.69 3.69 0 0 0 3.676 3.676h7.663v10.332h7.974v-10.332z" class="cls-1" data-name="Path 2742" transform="translate(-810.366 364.071)"/>
            <path id="Path_2743" d="M899.6-194.141a3.957 3.957 0 0 0 3.987 3.987 3.957 3.957 0 0 0 3.987-3.987v-12.572H899.6z" class="cls-1" data-name="Path 2743" transform="translate(-888.255 226.711)"/>
        </g>
        <g id="Group_3063" data-name="Group 3063" transform="translate(99.308)">
            <path id="Path_2744" d="M1071-200.959a3.639 3.639 0 0 0-2.323.858 11.345 11.345 0 0 1-7.675 2.778c-5.475 0-9.425-4.124-10.135-9.39h-8.174a17.791 17.791 0 0 0 18.056 16.559c5.655 0 9.391-1.666 12.573-4.443a3.659 3.659 0 0 0 1.313-2.777 3.642 3.642 0 0 0-3.635-3.585z" class="cls-2" data-name="Path 2744" transform="translate(-1042.636 226.711)"/>
            <path id="Path_2745" d="M1060.611-356.9a11.627 11.627 0 0 1 7.22 2.524 4.082 4.082 0 0 0 2.322.757 3.793 3.793 0 0 0 3.838-3.787 3.891 3.891 0 0 0-1.515-3.08 18.715 18.715 0 0 0-11.815-3.585 17.944 17.944 0 0 0-18.416 17.684h8.126c.229-5.831 4.444-10.513 10.24-10.513z" class="cls-2" data-name="Path 2745" transform="translate(-1042.246 364.07)"/>
        </g>
        <g id="Group_3064" data-name="Group 3064" transform="translate(134.914)">
            <path id="Path_2746" d="M1462.482-364.07a3.922 3.922 0 0 0-3.954 3.953v10.577h-5.947v7.29h5.947v10.783a3.923 3.923 0 0 0 3.954 3.954 3.923 3.923 0 0 0 3.953-3.954v-28.65a3.922 3.922 0 0 0-3.953-3.953z" class="cls-3" data-name="Path 2746" transform="translate(-1436.04 364.07)"/>
            <path id="Path_2747" d="M1330.331-349.54v-10.577a3.922 3.922 0 0 0-3.954-3.953 3.923 3.923 0 0 0-3.954 3.953v28.65a3.924 3.924 0 0 0 3.954 3.954 3.923 3.923 0 0 0 3.954-3.954v-10.783h6.321v-7.29z" class="cls-3" data-name="Path 2747" transform="translate(-1322.423 364.07)"/>
        </g>
        <g id="Group_3065" data-name="Group 3065" transform="translate(169.013)">
            <path id="Path_2748" d="M1590.742-255.833a3.923 3.923 0 0 0 3.954 3.954 3.923 3.923 0 0 0 3.954-3.954v-21.592h-7.907z" class="cls-4" data-name="Path 2748" transform="translate(-1590.742 288.436)"/>
            <path id="Path_2749" d="M1599.441-359.721a4.35 4.35 0 0 0-4.56-4.344 4.43 4.43 0 0 0-4.139 4.467v4.226h4.349a4.349 4.349 0 0 0 4.349-4.349z" class="cls-4" data-name="Path 2749" transform="translate(-1590.742 364.07)"/>
        </g>
        <g id="Group_3066" data-name="Group 3066">
            <path id="Path_2750" d="M482.765-303.561v14.361a3.927 3.927 0 0 0 4.627 3.895 4.036 4.036 0 0 0 3.208-4v-26.332z" class="cls-5" data-name="Path 2750" transform="translate(-454.559 321.788)"/>
            <path id="Path_2751" d="M292.891-364.068h-.849a3.857 3.857 0 0 0-3.533 2.008l-9.577 15.652-9.525-15.6a4.046 4.046 0 0 0-3.585-2.06h-1.043a3.963 3.963 0 0 0-3.818 2.909 7.4 7.4 0 0 0-.147 1.808v27.977a3.851 3.851 0 0 0 4.3 3.842 4.1 4.1 0 0 0 3.536-4v-17.78l6.842 10.546a3.858 3.858 0 0 0 3.292 2.006 3.858 3.858 0 0 0 3.292-2.006l14.606-22.5a3.966 3.966 0 0 0-3.791-2.802z" class="cls-5" data-name="Path 2751" transform="translate(-260.814 364.068)"/>
        </g>
        <g id="Group_3067" data-name="Group 3067" transform="translate(39.409)">
            <path id="Path_2752" d="M605.79-332.868l-12.44-28.093a4.852 4.852 0 0 0-4.588-3.11h-.462a4.785 4.785 0 0 0-4.538 3.11l-12.441 28.093a3.835 3.835 0 0 0-.408 1.581 3.722 3.722 0 0 0 3.722 3.773 4 4 0 0 0 3.773-2.7l2.4-5.609h13.421l-2.912-6.934h-7.6l4.945-11.778 4.946 11.778 3.276 7.8 2.128 5a3.857 3.857 0 0 0 3.621 2.447 3.612 3.612 0 0 0 3.62-3.671 4.159 4.159 0 0 0-.463-1.687z" class="cls-6" data-name="Path 2752" transform="translate(-570.916 364.071)"/>
        </g>
    </g>
</svg>
