<?xml version="1.0" encoding="utf-8"?>
<!-- Generator: Adobe Illustrator 24.2.3, SVG Export Plug-In . SVG Version: 6.00 Build 0)  -->
<svg version="1.1" id="Layer_1" xmlns="http://www.w3.org/2000/svg" xmlns:xlink="http://www.w3.org/1999/xlink" x="0px" y="0px"
	 viewBox="0 0 1400 290" xml:space="preserve">

	<path fill="#22ad5c" d="M762.6,59c15.9,0,28.9-13,28.9-28.9c0-15.9-13-28.9-28.9-28.9H579.3c-15.9,0-28.9,13-28.9,28.9
		c0,15.9,13,28.9,28.9,28.9h60.3v81.3h62.8V59L762.6,59L762.6,59z"/>
	<path fill="#22ad5c" d="M639.6,257.5c0,17.5,13.9,31.4,31.4,31.4c17.5,0,31.4-13.9,31.4-31.4v-98.9h-62.8L639.6,257.5L639.6,257.5z"
	/>
	<path fill="#22ad5c" d="M1005.4,203.8c-7.2,0-13.5,2.8-18.3,6.8c-17.5,13.9-34.6,21.9-60.4,21.9c-43.1,0-74.2-32.5-79.8-73.9h-64.3
		c6.1,73.7,64.6,130.3,142.1,130.3c44.5,0,73.9-13.1,98.9-35c5.6-4.8,10.3-12.3,10.3-21.8C1034,216.5,1020.9,203.8,1005.4,203.8z"
	/>
	<path fill="#22ad5c" d="M926.8,57.6c21.8,0,39.7,7.1,56.8,19.9c4.4,2.8,9.9,6,18.3,6c16.7,0,30.2-13.1,30.2-29.8
		c0-10.7-5.6-19.5-11.9-24.2c-23-17.1-51.3-28.2-93-28.2c-83.7,0-142.6,62.2-144.9,139.2h63.9C848,94.4,881.1,57.6,926.8,57.6z"/>
	<path fill="#22ad5c" d="M1270.5,1.2c-17.4,0-31.1,13.7-31.1,31.1v83.2h-46.8v57.4h46.8v84.8c0,17.4,13.7,31.1,31.1,31.1
		s31.1-13.7,31.1-31.1V32.3C1301.6,14.9,1287.9,1.2,1270.5,1.2z"/>
	<path fill="#22ad5c" d="M1124.6,115.5V32.3c0-17.4-13.7-31.1-31.1-31.1s-31.1,13.7-31.1,31.1v225.4c0,17.4,13.7,31.1,31.1,31.1
		s31.1-13.7,31.1-31.1v-84.8h49.7v-57.4L1124.6,115.5L1124.6,115.5z"/>
	<path fill="#22ad5c" d="M1330.7,257.7c0,17.4,13.7,31.1,31.1,31.1s31.1-13.7,31.1-31.1V87.8h-62.2V257.7z"/>
	<path fill="#22ad5c" d="M1399.2,35.4c0-19.5-16.2-35.1-35.9-34.2c-18.4,0.9-32.6,16.7-32.6,35.1v33.3h34.2l0,0
		C1383.9,69.6,1399.2,54.3,1399.2,35.4L1399.2,35.4z"/>
	<path fill="#22ad5c" d="M222.8,144.6v113c0,18.9,16.9,34.3,36.4,30.7c14.8-2.8,25.2-16.4,25.2-31.5V49.6L222.8,144.6z"/>
	<path fill="#22ad5c" d="M253.2,1.2h-6.7c-12.5,0-21.4,5.3-27.8,15.8l-75.4,123.2l-75-122.8C62.8,8.1,53.5,1.2,40.2,1.2H32
		c-14.4,0-26.4,9.7-30,22.9c-0.9,2.7-1.1,8.2-1.1,14.2s0,12.5,0,12.5v207.6c0,18.1,15.2,32,33.8,30.2c15.4-1.5,27.8-16,27.8-31.5
		V117.3l0,0l53.8,83c6.5,9.7,14.6,15.8,25.9,15.8c11.3,0,19.4-6.1,25.9-15.8L283.1,23.2C279.1,10.5,267.3,1.2,253.2,1.2z"/>
	<path fill="#22ad5c" d="M585.3,246.7L487.4,25.6c-6.8-15.2-19.3-24.5-36.1-24.5h-3.6c-16.8,0-28.9,9.2-35.7,24.5l-97.9,221.1
		c-2,4.4-3.2,8.4-3.2,12.4c0,16.5,12.8,29.7,29.3,29.7c14.4,0,24.1-8.4,29.7-21.3l18.8-44.1h105.6l-22.9-54.6h-59.8l38.9-92.7
		l38.9,92.7l0,0l25.8,61.4l16.8,39.3c5.2,12,15.7,19.3,28.5,19.3c16,0,28.5-12.8,28.5-28.9C588.9,255.5,587.3,251.1,585.3,246.7z"
	/>
</svg>
