<svg id="Layer_1" data-name="Layer 1" xmlns="http://www.w3.org/2000/svg" viewBox="0 0 116 26"><defs><style>.cls-1{fill:#fff;}</style></defs><title>Logotest_01.Artboard 11</title><path class="cls-1" d="M63.2,5.84a2.4,2.4,0,0,0,0-4.8H48a2.4,2.4,0,1,0,0,4.8h5v6.74h5.2V5.84Z"/><path class="cls-1" d="M53,22.3a2.6,2.6,0,1,0,5.2,0V14.09H53Z"/><path class="cls-1" d="M83.34,17.85a2.38,2.38,0,0,0-1.52.56,7.43,7.43,0,0,1-5,1.81,6.73,6.73,0,0,1-6.62-6.13H64.86a12.17,12.17,0,0,0,20,7.91,2.34,2.34,0,0,0-1.51-4.15Z"/><path class="cls-1" d="M76.81,5.72a7.54,7.54,0,0,1,4.71,1.65A2.71,2.71,0,0,0,83,7.86a2.47,2.47,0,0,0,2.5-2.47,2.56,2.56,0,0,0-1-2A12.24,12.24,0,0,0,76.84,1a11.71,11.71,0,0,0-12,11.54h5.31A6.8,6.8,0,0,1,76.81,5.72Z"/><path class="cls-1" d="M105.32,1a2.56,2.56,0,0,0-2.58,2.58v6.9H98.86v4.76h3.88v7a2.58,2.58,0,0,0,5.16,0V3.62A2.55,2.55,0,0,0,105.32,1Z"/><path class="cls-1" d="M93.23,10.52V3.62a2.59,2.59,0,0,0-5.17,0v18.7a2.59,2.59,0,0,0,5.17,0v-7h4.12V10.52Z"/><path class="cls-1" d="M110.32,22.32a2.58,2.58,0,1,0,5.16,0V8.23h-5.16Z"/><path class="cls-1" d="M116,3.88A2.85,2.85,0,0,0,113,1,2.9,2.9,0,0,0,110.32,4V6.72h2.84A2.84,2.84,0,0,0,116,3.88Z"/><path class="cls-1" d="M18.41,12.94v9.37a2.57,2.57,0,0,0,3,2.55,2.65,2.65,0,0,0,2.1-2.61V5.06Z"/><path class="cls-1" d="M20.94,1h-.56a2.52,2.52,0,0,0-2.3,1.31L11.83,12.57,5.61,2.38A2.65,2.65,0,0,0,3.27,1H2.59A2.59,2.59,0,0,0,.1,2.94,4.41,4.41,0,0,0,0,4.12V22.38a2.52,2.52,0,0,0,2.81,2.51,2.67,2.67,0,0,0,2.3-2.61V10.68h0l4.47,6.88a2.54,2.54,0,0,0,2.15,1.31,2.54,2.54,0,0,0,2.15-1.31L23.41,2.87A2.58,2.58,0,0,0,20.94,1Z"/><path class="cls-1" d="M48.49,21.41,40.37,3.07a3.18,3.18,0,0,0-3-2h-.3a3.14,3.14,0,0,0-3,2L26,21.41a2.39,2.39,0,0,0,2.16,3.49,2.62,2.62,0,0,0,2.47-1.76l1.56-3.66h8.76L39,15h-5l3.23-7.69L40.53,15h0L42.67,20l1.39,3.27a2.52,2.52,0,0,0,2.36,1.59,2.35,2.35,0,0,0,2.37-2.39A2.79,2.79,0,0,0,48.49,21.41Z"/></svg>